<svg viewBox="0 0 24 24" fill="none" xmlns="http://www.w3.org/2000/svg">
<rect width="24" height="24"/>
<path fill-rule="evenodd" clip-rule="evenodd" d="M20.3985 5.55146C20.6462 5.77161 20.6685 6.15086 20.4483 6.39853L12.4483 15.3985C12.3386 15.522 12.1827 15.5948 12.0175 15.5996C11.8524 15.6045 11.6925 15.541 11.5756 15.4242L7.57564 11.4242C7.34132 11.1899 7.34132 10.81 7.57564 10.5756C7.80995 10.3413 8.18985 10.3413 8.42417 10.5756L11.9742 14.1257L19.5515 5.60129C19.7716 5.35362 20.1509 5.33131 20.3985 5.55146Z" fill="#444444"/>
<path d="M5.5999 11.9999C5.5999 8.46528 8.46528 5.5999 11.9999 5.5999C13.7734 5.5999 15.3785 6.3213 16.5376 7.48668L17.3361 6.58836C15.9639 5.2351 14.0794 4.3999 11.9999 4.3999C7.80254 4.3999 4.3999 7.80254 4.3999 11.9999C4.3999 16.1973 7.80254 19.5999 11.9999 19.5999C16.1973 19.5999 19.5999 16.1973 19.5999 11.9999C19.5999 11.0791 19.4362 10.1966 19.1362 9.37989L18.2052 10.4272C18.3324 10.9304 18.3999 11.4573 18.3999 11.9999C18.3999 15.5345 15.5345 18.3999 11.9999 18.3999C8.46528 18.3999 5.5999 15.5345 5.5999 11.9999Z" fill="#444444"/>
</svg>
