<svg width="1000" height="150" viewBox="0 0 1000 150" fill="none" xmlns="http://www.w3.org/2000/svg">
<path d="M52.9445 148.6C46.0112 148.6 39.1445 147.733 32.3445 146C25.6779 144.267 20.0112 141.8 15.3445 138.6L20.1445 109.2H22.1445L27.9445 125.6C30.2112 132.133 33.1445 136.933 36.7445 140C40.4779 143.067 45.8779 144.6 52.9445 144.6C60.8112 144.6 67.0112 142.267 71.5445 137.6C76.2112 132.933 78.5445 127.333 78.5445 120.8C78.5445 117.333 78.0112 114.067 76.9445 111C75.8779 107.933 73.8112 104.733 70.7445 101.4C67.8112 98.0667 63.4112 94.3333 57.5445 90.2C50.3445 85 44.8112 80.1333 40.9445 75.6C37.0779 71.0667 34.4112 66.6 32.9445 62.2C31.4779 57.8 30.7445 53.3333 30.7445 48.8C30.7445 40.9333 32.7445 34.0667 36.7445 28.2C40.7445 22.2 46.2779 17.6 53.3445 14.4C60.5445 11.0667 68.6779 9.39999 77.7445 9.39999C84.4112 9.39999 91.0112 10.3333 97.5445 12.2C104.211 13.9333 109.745 16.3333 114.145 19.4L108.545 47.4H106.545L102.545 34.2C100.411 27.1333 97.6112 21.9333 94.1445 18.6C90.6779 15.1333 85.4112 13.4 78.3445 13.4C71.4112 13.4 65.5445 15.4 60.7445 19.4C56.0779 23.4 53.7445 28.7333 53.7445 35.4C53.7445 41.1333 55.2779 46.3333 58.3445 51C61.4112 55.6667 66.9445 60.8667 74.9445 66.6C85.4779 74.3333 92.7445 81.3333 96.7445 87.6C100.878 93.7333 102.945 100.4 102.945 107.6C102.945 116.133 100.811 123.467 96.5445 129.6C92.2779 135.6 86.3445 140.267 78.7445 143.6C71.2779 146.933 62.6779 148.6 52.9445 148.6ZM152.582 148C142.582 148 134.449 144.733 128.182 138.2C121.915 131.667 118.782 122.4 118.782 110.4C118.782 101.867 120.249 93.7333 123.182 86C126.115 78.2667 130.182 71.4 135.382 65.4C140.715 59.2667 146.849 54.4667 153.782 51C160.715 47.5333 168.249 45.8 176.382 45.8C184.782 45.8 191.182 47.7333 195.582 51.6C200.115 55.3333 202.382 60.3333 202.382 66.6C202.382 71.8 199.915 76.9333 194.982 82C190.182 87.0667 183.382 91.6667 174.582 95.8C165.782 99.8 155.449 102.867 143.582 105C143.715 114.2 145.715 120.933 149.582 125.2C153.449 129.467 158.782 131.6 165.582 131.6C171.315 131.6 176.582 130.067 181.382 127C186.182 123.8 190.249 120.067 193.582 115.8L195.582 117.2C192.915 122.4 189.449 127.333 185.182 132C181.049 136.667 176.249 140.533 170.782 143.6C165.315 146.533 159.249 148 152.582 148ZM174.982 51.2C171.915 51.2 168.582 52.5333 164.982 55.2C161.515 57.8667 158.182 61.5333 154.982 66.2C151.915 70.7333 149.315 76 147.182 82C145.182 87.8667 143.982 94.1333 143.582 100.8C158.249 96.8 168.649 91.5333 174.782 85C181.049 78.4667 184.182 71.0667 184.182 62.8C184.182 58.8 183.315 55.8667 181.582 54C179.849 52.1333 177.649 51.2 174.982 51.2ZM245.821 148C238.888 148 232.554 146.667 226.821 144C221.088 141.2 216.554 137.067 213.221 131.6C209.888 126 208.221 118.933 208.221 110.4C208.221 101.867 209.621 93.7333 212.421 86C215.354 78.2667 219.421 71.4 224.621 65.4C229.821 59.2667 235.888 54.4667 242.821 51C249.754 47.5333 257.288 45.8 265.421 45.8C272.488 45.8 278.754 47.2 284.221 50C289.821 52.6667 294.221 56.7333 297.421 62.2C300.754 67.6667 302.421 74.6667 302.421 83.2C302.421 91.6 300.954 99.7333 298.021 107.6C295.221 115.333 291.221 122.267 286.021 128.4C280.954 134.4 274.954 139.2 268.021 142.8C261.221 146.267 253.821 148 245.821 148ZM248.221 144C252.354 144 256.088 142.133 259.421 138.4C262.888 134.533 265.888 129.467 268.421 123.2C270.954 116.8 272.888 109.8 274.221 102.2C275.554 94.4667 276.221 86.8 276.221 79.2C276.221 68.1333 275.088 60.4667 272.821 56.2C270.554 51.9333 267.621 49.8 264.021 49.8C259.754 49.8 255.821 51.6667 252.221 55.4C248.621 59.1333 245.488 64.1333 242.821 70.4C240.154 76.6667 238.088 83.6 236.621 91.2C235.154 98.8 234.421 106.4 234.421 114C234.421 125.333 235.754 133.2 238.421 137.6C241.088 141.867 244.354 144 248.221 144ZM361.649 148.6C356.316 148.6 351.916 147.4 348.449 145C344.983 142.733 343.249 139.6 343.249 135.6C343.249 132.133 344.383 129.333 346.649 127.2C348.916 125.067 351.716 124 355.049 124C358.116 124 361.116 124.933 364.049 126.8C367.116 128.667 369.583 132.667 371.449 138.8C372.116 140.533 372.983 141.467 374.049 141.6C375.249 141.6 376.316 140.867 377.249 139.4C379.116 136.467 380.716 132.733 382.049 128.2C383.383 123.667 384.449 118.667 385.249 113.2C386.183 107.733 387.116 101.8 388.049 95.4C388.983 88.8667 389.983 81.9333 391.049 74.6C392.116 68.3333 393.249 61.2667 394.449 53.4C395.783 45.5333 397.116 37.1333 398.449 28.2C399.383 22.8667 397.316 19.0667 392.249 16.8L388.449 15L388.849 13H439.049L438.649 15L435.049 16.8C430.249 18.9333 427.316 22.7333 426.249 28.2L417.249 78C415.116 89.2 412.849 98.1333 410.449 104.8C408.183 111.333 405.716 116.8 403.049 121.2C397.983 130 391.783 136.8 384.449 141.6C377.249 146.267 369.649 148.6 361.649 148.6ZM467.11 148C460.177 148 453.843 146.667 448.11 144C442.377 141.2 437.843 137.067 434.51 131.6C431.177 126 429.51 118.933 429.51 110.4C429.51 101.867 430.91 93.7333 433.71 86C436.643 78.2667 440.71 71.4 445.91 65.4C451.11 59.2667 457.177 54.4667 464.11 51C471.043 47.5333 478.577 45.8 486.71 45.8C493.777 45.8 500.043 47.2 505.51 50C511.11 52.6667 515.51 56.7333 518.71 62.2C522.043 67.6667 523.71 74.6667 523.71 83.2C523.71 91.6 522.243 99.7333 519.31 107.6C516.51 115.333 512.51 122.267 507.31 128.4C502.243 134.4 496.243 139.2 489.31 142.8C482.51 146.267 475.11 148 467.11 148ZM469.51 144C473.643 144 477.377 142.133 480.71 138.4C484.177 134.533 487.177 129.467 489.71 123.2C492.243 116.8 494.177 109.8 495.51 102.2C496.843 94.4667 497.51 86.8 497.51 79.2C497.51 68.1333 496.377 60.4667 494.11 56.2C491.843 51.9333 488.91 49.8 485.31 49.8C481.043 49.8 477.11 51.6667 473.51 55.4C469.91 59.1333 466.777 64.1333 464.11 70.4C461.443 76.6667 459.377 83.6 457.91 91.2C456.443 98.8 455.71 106.4 455.71 114C455.71 125.333 457.043 133.2 459.71 137.6C462.377 141.867 465.643 144 469.51 144ZM571.798 148C564.864 148 558.531 146.667 552.798 144C547.064 141.2 542.531 137.067 539.198 131.6C535.864 126 534.198 118.933 534.198 110.4C534.198 101.867 535.598 93.7333 538.398 86C541.331 78.2667 545.398 71.4 550.598 65.4C555.798 59.2667 561.864 54.4667 568.798 51C575.731 47.5333 583.264 45.8 591.398 45.8C598.464 45.8 604.731 47.2 610.198 50C615.798 52.6667 620.198 56.7333 623.398 62.2C626.731 67.6667 628.398 74.6667 628.398 83.2C628.398 91.6 626.931 99.7333 623.998 107.6C621.198 115.333 617.198 122.267 611.998 128.4C606.931 134.4 600.931 139.2 593.998 142.8C587.198 146.267 579.798 148 571.798 148ZM574.198 144C578.331 144 582.064 142.133 585.398 138.4C588.864 134.533 591.864 129.467 594.398 123.2C596.931 116.8 598.864 109.8 600.198 102.2C601.531 94.4667 602.198 86.8 602.198 79.2C602.198 68.1333 601.064 60.4667 598.798 56.2C596.531 51.9333 593.598 49.8 589.998 49.8C585.731 49.8 581.798 51.6667 578.198 55.4C574.598 59.1333 571.464 64.1333 568.798 70.4C566.131 76.6667 564.064 83.6 562.598 91.2C561.131 98.8 560.398 106.4 560.398 114C560.398 125.333 561.731 133.2 564.398 137.6C567.064 141.867 570.331 144 574.198 144ZM673.826 145L674.226 143L679.226 141.4C683.226 139.667 685.559 136.8 686.226 132.8L697.226 75C698.559 67.8 700.026 59.8 701.626 51C703.226 42.0667 704.692 33.6667 706.026 25.8C706.826 21.1333 704.959 17.9333 700.426 16.2L697.426 15L697.826 13H747.026L746.626 15L741.426 16.6C736.892 18.2 734.226 21.2667 733.426 25.8L724.426 75H774.026C774.826 70.6 775.692 65.6 776.626 60C777.692 54.4 778.692 48.6667 779.626 42.8C780.692 36.9333 781.626 31.4667 782.426 26.4C783.226 21.3333 781.292 17.8667 776.626 16L773.626 15L774.026 13H823.226L822.826 15L818.026 16.6C813.626 18.2 810.959 21.2667 810.026 25.8L799.226 82.8C797.892 90.2667 796.492 98.1333 795.026 106.4C793.559 114.533 792.026 123.267 790.426 132.6C789.759 136.867 791.359 139.733 795.226 141.2L799.826 143L799.426 145H749.626L750.026 143L755.826 141C759.692 139.667 762.026 137 762.826 133L773.026 79H723.426C721.959 86.6 720.359 95.0667 718.626 104.4C717.026 113.6 715.426 123.067 713.826 132.8C713.159 136.933 714.692 139.8 718.426 141.4L722.226 143L721.826 145H673.826ZM851.605 148C841.605 148 833.472 144.733 827.205 138.2C820.939 131.667 817.805 122.4 817.805 110.4C817.805 101.867 819.272 93.7333 822.205 86C825.139 78.2667 829.205 71.4 834.405 65.4C839.739 59.2667 845.872 54.4667 852.805 51C859.739 47.5333 867.272 45.8 875.405 45.8C883.805 45.8 890.205 47.7333 894.605 51.6C899.139 55.3333 901.405 60.3333 901.405 66.6C901.405 71.8 898.939 76.9333 894.005 82C889.205 87.0667 882.405 91.6667 873.605 95.8C864.805 99.8 854.472 102.867 842.605 105C842.739 114.2 844.739 120.933 848.605 125.2C852.472 129.467 857.805 131.6 864.605 131.6C870.339 131.6 875.605 130.067 880.405 127C885.205 123.8 889.272 120.067 892.605 115.8L894.605 117.2C891.939 122.4 888.472 127.333 884.205 132C880.072 136.667 875.272 140.533 869.805 143.6C864.339 146.533 858.272 148 851.605 148ZM874.005 51.2C870.939 51.2 867.605 52.5333 864.005 55.2C860.539 57.8667 857.205 61.5333 854.005 66.2C850.939 70.7333 848.339 76 846.205 82C844.205 87.8667 843.005 94.1333 842.605 100.8C857.272 96.8 867.672 91.5333 873.805 85C880.072 78.4667 883.205 71.0667 883.205 62.8C883.205 58.8 882.339 55.8667 880.605 54C878.872 52.1333 876.672 51.2 874.005 51.2ZM941.645 148C931.645 148 923.511 144.733 917.245 138.2C910.978 131.667 907.845 122.4 907.845 110.4C907.845 101.867 909.311 93.7333 912.245 86C915.178 78.2667 919.245 71.4 924.445 65.4C929.778 59.2667 935.911 54.4667 942.845 51C949.778 47.5333 957.311 45.8 965.445 45.8C973.845 45.8 980.245 47.7333 984.645 51.6C989.178 55.3333 991.445 60.3333 991.445 66.6C991.445 71.8 988.978 76.9333 984.045 82C979.245 87.0667 972.445 91.6667 963.645 95.8C954.845 99.8 944.511 102.867 932.645 105C932.778 114.2 934.778 120.933 938.645 125.2C942.511 129.467 947.845 131.6 954.645 131.6C960.378 131.6 965.645 130.067 970.445 127C975.245 123.8 979.311 120.067 982.645 115.8L984.645 117.2C981.978 122.4 978.511 127.333 974.245 132C970.111 136.667 965.311 140.533 959.845 143.6C954.378 146.533 948.311 148 941.645 148ZM964.045 51.2C960.978 51.2 957.645 52.5333 954.045 55.2C950.578 57.8667 947.245 61.5333 944.045 66.2C940.978 70.7333 938.378 76 936.245 82C934.245 87.8667 933.045 94.1333 932.645 100.8C947.311 96.8 957.711 91.5333 963.845 85C970.111 78.4667 973.245 71.0667 973.245 62.8C973.245 58.8 972.378 55.8667 970.645 54C968.911 52.1333 966.711 51.2 964.045 51.2Z" fill="white" fill-opacity="0.1"/>
</svg>
