<svg viewBox="0 0 20 20" fill="none" xmlns="http://www.w3.org/2000/svg">
<path d="M14.0417 7.20833H11.4167C11.262 7.20833 11.1136 7.14687 11.0042 7.03748C10.8948 6.92808 10.8333 6.77971 10.8333 6.625V4M14.0417 7.20833V14.7917C14.0417 14.9464 13.9802 15.0947 13.8708 15.2041C13.7614 15.3135 13.613 15.375 13.4583 15.375H5.58333C5.42862 15.375 5.28025 15.3135 5.17085 15.2041C5.06146 15.0947 5 14.9464 5 14.7917V4.58333C5 4.42862 5.06146 4.28025 5.17085 4.17085C5.28025 4.06146 5.42862 4 5.58333 4H10.8333M14.0417 7.20833L10.8333 4" stroke="#444444" stroke-width="0.8" stroke-linecap="round" stroke-linejoin="round"/>
</svg>
