<svg viewBox="0 0 1000 150" fill="none" xmlns="http://www.w3.org/2000/svg">
<path d="M32.3445 146L32.0929 146.968L32.0975 146.969L32.3445 146ZM15.3445 138.6L14.3576 138.439L14.2553 139.066L14.779 139.425L15.3445 138.6ZM20.1445 109.2V108.2H19.2946L19.1576 109.039L20.1445 109.2ZM22.1445 109.2L23.0873 108.867L22.8516 108.2H22.1445V109.2ZM27.9445 125.6L28.8893 125.272L28.8873 125.267L27.9445 125.6ZM36.7445 140L36.0961 140.761L36.1029 140.767L36.1098 140.773L36.7445 140ZM71.5445 137.6L70.8374 136.893L70.8323 136.898L70.8273 136.903L71.5445 137.6ZM76.9445 111L77.889 110.671L77.889 110.671L76.9445 111ZM70.7445 101.4L69.9938 102.061L70.0011 102.069L70.0086 102.077L70.7445 101.4ZM57.5445 90.2L56.959 91.0107L56.9686 91.0175L57.5445 90.2ZM40.9445 75.6L40.1837 76.2489L40.1837 76.2489L40.9445 75.6ZM32.9445 62.2L33.8932 61.8838L33.8932 61.8838L32.9445 62.2ZM36.7445 28.2L37.5708 28.7634L37.5766 28.7547L36.7445 28.2ZM53.3445 14.4L53.7571 15.311L53.7647 15.3075L53.3445 14.4ZM97.5445 12.2L97.2698 13.1615L97.2813 13.1648L97.2929 13.1678L97.5445 12.2ZM114.145 19.4L115.125 19.5961L115.254 18.954L114.716 18.5796L114.145 19.4ZM108.545 47.4V48.4H109.364L109.525 47.5961L108.545 47.4ZM106.545 47.4L105.588 47.69L105.803 48.4H106.545V47.4ZM102.545 34.2L101.587 34.489L101.588 34.49L102.545 34.2ZM94.1445 18.6L93.4374 19.3071L93.4444 19.314L93.4514 19.3208L94.1445 18.6ZM60.7445 19.4L60.1043 18.6317L60.0937 18.6407L60.7445 19.4ZM58.3445 51L59.1802 50.4508L59.1802 50.4508L58.3445 51ZM74.9445 66.6L75.5364 65.7939L75.5271 65.7872L74.9445 66.6ZM96.7445 87.6L95.9016 88.138L95.9083 88.1485L95.9153 88.1589L96.7445 87.6ZM96.5445 129.6L97.3595 130.18L97.3654 130.171L96.5445 129.6ZM78.7445 143.6L78.3429 142.684L78.3369 142.687L78.7445 143.6ZM52.9445 147.6C46.0955 147.6 39.3118 146.744 32.5915 145.031L32.0975 146.969C38.9773 148.723 45.9269 149.6 52.9445 149.6V147.6ZM32.5962 145.032C26.018 143.322 20.463 140.897 15.9101 137.775L14.779 139.425C19.5594 142.703 25.3377 145.211 32.0929 146.968L32.5962 145.032ZM16.3315 138.761L21.1315 109.361L19.1576 109.039L14.3576 138.439L16.3315 138.761ZM20.1445 110.2H22.1445V108.2H20.1445V110.2ZM21.2018 109.533L27.0018 125.933L28.8873 125.267L23.0873 108.867L21.2018 109.533ZM26.9998 125.928C29.2996 132.557 32.3118 137.538 36.0961 140.761L37.393 139.239C33.9772 136.329 31.1228 131.71 28.8893 125.272L26.9998 125.928ZM36.1098 140.773C40.0886 144.041 45.7503 145.6 52.9445 145.6V143.6C46.0054 143.6 40.8672 142.092 37.3793 139.227L36.1098 140.773ZM52.9445 145.6C61.0208 145.6 67.5018 143.197 72.2618 138.297L70.8273 136.903C66.5206 141.336 60.6016 143.6 52.9445 143.6V145.6ZM72.2516 138.307C77.1037 133.455 79.5445 127.602 79.5445 120.8H77.5445C77.5445 127.065 75.3187 132.412 70.8374 136.893L72.2516 138.307ZM79.5445 120.8C79.5445 117.229 78.9949 113.851 77.889 110.671L76 111.329C77.0275 114.283 77.5445 117.438 77.5445 120.8H79.5445ZM77.889 110.671C76.7634 107.435 74.6056 104.12 71.4805 100.723L70.0086 102.077C73.0168 105.347 74.9924 108.431 76 111.329L77.889 110.671ZM71.4952 100.739C68.4882 97.3223 64.0172 93.537 58.1205 89.3825L56.9686 91.0175C62.8052 95.1296 67.1342 98.811 69.9938 102.061L71.4952 100.739ZM58.13 89.3893C50.9664 84.2156 45.5017 79.4019 41.7054 74.9511L40.1837 76.2489C44.1207 80.8648 49.7226 85.7844 56.959 91.0107L58.13 89.3893ZM41.7054 74.9511C37.8994 70.4889 35.3095 66.1325 33.8932 61.8838L31.9958 62.5162C33.5129 67.0675 36.2563 71.6444 40.1837 76.2489L41.7054 74.9511ZM33.8932 61.8838C32.4597 57.5833 31.7445 53.2234 31.7445 48.8H29.7445C29.7445 53.4433 30.496 58.0166 31.9958 62.5162L33.8932 61.8838ZM31.7445 48.8C31.7445 41.1117 33.6961 34.4462 37.5708 28.7633L35.9183 27.6367C31.793 33.6871 29.7445 40.7549 29.7445 48.8H31.7445ZM37.5766 28.7547C41.4649 22.9222 46.8474 18.4399 53.757 15.3109L52.932 13.489C45.7084 16.7601 40.0241 21.4778 35.9125 27.6453L37.5766 28.7547ZM53.7647 15.3075C60.8154 12.0432 68.8023 10.4 77.7445 10.4V8.39999C68.5535 8.39999 60.2736 10.0901 52.9244 13.4925L53.7647 15.3075ZM77.7445 10.4C84.3165 10.4 90.8241 11.3199 97.2698 13.1615L97.8193 11.2385C91.1983 9.34677 84.5059 8.39999 77.7445 8.39999V10.4ZM97.2929 13.1678C103.876 14.8794 109.293 17.2376 113.573 20.2204L114.716 18.5796C110.196 15.429 104.546 12.9872 97.7962 11.2322L97.2929 13.1678ZM113.164 19.2039L107.564 47.2039L109.525 47.5961L115.125 19.5961L113.164 19.2039ZM108.545 46.4H106.545V48.4H108.545V46.4ZM107.502 47.11L103.502 33.91L101.588 34.49L105.588 47.69L107.502 47.11ZM103.502 33.911C101.343 26.7605 98.477 21.3785 94.8376 17.8792L93.4514 19.3208C96.7454 22.4882 99.4792 27.5062 101.587 34.489L103.502 33.911ZM94.8516 17.8929C91.1281 14.1693 85.5589 12.4 78.3445 12.4V14.4C85.2635 14.4 90.2276 16.0973 93.4374 19.3071L94.8516 17.8929ZM78.3445 12.4C71.2046 12.4 65.104 14.4654 60.1044 18.6318L61.3847 20.1682C65.985 16.3346 71.6178 14.4 78.3445 14.4V12.4ZM60.0937 18.6407C55.185 22.8482 52.7445 28.4694 52.7445 35.4H54.7445C54.7445 28.9973 56.9707 23.9518 61.3953 20.1593L60.0937 18.6407ZM52.7445 35.4C52.7445 41.323 54.332 46.7148 57.5088 51.5492L59.1802 50.4508C56.2238 45.9518 54.7445 40.9437 54.7445 35.4H52.7445ZM57.5088 51.5492C60.6759 56.3686 66.3264 61.654 74.362 67.4128L75.5271 65.7872C67.5626 60.0794 62.1465 54.9647 59.1802 50.4508L57.5088 51.5492ZM74.3527 67.4061C84.8503 75.1131 92.0003 82.026 95.9016 88.138L97.5875 87.062C93.4887 80.6406 86.1055 73.5535 75.5363 65.7939L74.3527 67.4061ZM95.9153 88.1589C99.9405 94.1318 101.945 100.605 101.945 107.6H103.945C103.945 100.195 101.815 93.3348 97.5738 87.0411L95.9153 88.1589ZM101.945 107.6C101.945 115.959 99.8576 123.086 95.7236 129.029L97.3654 130.171C101.765 123.847 103.945 116.307 103.945 107.6H101.945ZM95.7296 129.02C91.5806 134.855 85.7988 139.414 78.3429 142.684L79.1462 144.516C86.8903 141.119 92.9752 136.345 97.3595 130.18L95.7296 129.02ZM78.3369 142.687C71.0205 145.953 62.5637 147.6 52.9445 147.6V149.6C62.792 149.6 71.5352 147.914 79.1522 144.513L78.3369 142.687ZM128.182 138.2L127.46 138.892L127.46 138.892L128.182 138.2ZM123.182 86L124.117 86.3547L124.117 86.3547L123.182 86ZM135.382 65.4L134.627 64.7438L134.626 64.7451L135.382 65.4ZM153.782 51L153.335 50.1056L153.335 50.1056L153.782 51ZM195.582 51.6L194.922 52.3512L194.934 52.3617L194.946 52.3719L195.582 51.6ZM194.982 82L194.265 81.3023L194.256 81.3123L194.982 82ZM174.582 95.8L174.996 96.7104L175.007 96.7051L174.582 95.8ZM143.582 105L143.405 104.016L142.57 104.166L142.582 105.014L143.582 105ZM181.382 127L181.92 127.843L181.929 127.837L181.937 127.832L181.382 127ZM193.582 115.8L194.155 114.981L193.378 114.437L192.794 115.184L193.582 115.8ZM195.582 117.2L196.472 117.656L196.87 116.881L196.155 116.381L195.582 117.2ZM185.182 132L184.444 131.325L184.439 131.331L184.433 131.337L185.182 132ZM170.782 143.6L171.255 144.481L171.263 144.477L171.271 144.472L170.782 143.6ZM164.982 55.2L164.387 54.3964L164.38 54.4018L164.372 54.4074L164.982 55.2ZM154.982 66.2L154.157 65.6345L154.154 65.6397L154.982 66.2ZM147.182 82L146.24 81.665L146.236 81.6773L147.182 82ZM143.582 100.8L142.584 100.74L142.5 102.132L143.845 101.765L143.582 100.8ZM174.782 85L174.06 84.3077L174.053 84.3156L174.782 85ZM181.582 54L180.849 54.6804L180.849 54.6804L181.582 54ZM152.582 147C142.823 147 134.961 143.823 128.904 137.508L127.46 138.892C133.936 145.644 142.341 149 152.582 149V147ZM128.904 137.508C122.868 131.215 119.782 122.228 119.782 110.4H117.782C117.782 122.572 120.963 132.118 127.46 138.892L128.904 137.508ZM119.782 110.4C119.782 101.984 121.228 93.9711 124.117 86.3547L122.247 85.6453C119.269 93.4956 117.782 101.749 117.782 110.4H119.782ZM124.117 86.3547C127.01 78.7265 131.018 71.9625 136.138 66.0549L134.626 64.7451C129.346 70.8375 125.22 77.8068 122.247 85.6453L124.117 86.3547ZM136.137 66.0562C141.388 60.0167 147.419 55.2997 154.229 51.8944L153.335 50.1056C146.279 53.6336 140.042 58.5166 134.627 64.7438L136.137 66.0562ZM154.229 51.8944C161.017 48.5006 168.396 46.8 176.382 46.8V44.8C168.101 44.8 160.414 46.566 153.335 50.1056L154.229 51.8944ZM176.382 46.8C184.643 46.8 190.77 48.7023 194.922 52.3512L196.242 50.8488C191.594 46.7643 184.921 44.8 176.382 44.8V46.8ZM194.946 52.3719C199.232 55.9012 201.382 60.6092 201.382 66.6H203.382C203.382 60.0575 200.999 54.7655 196.218 50.8281L194.946 52.3719ZM201.382 66.6C201.382 71.4571 199.084 76.3538 194.266 81.3024L195.699 82.6976C200.747 77.5129 203.382 72.1429 203.382 66.6H201.382ZM194.256 81.3123C189.568 86.2603 182.885 90.7952 174.157 94.8949L175.007 96.7051C183.879 92.5381 190.796 87.873 195.708 82.6877L194.256 81.3123ZM174.168 94.8896C165.46 98.848 155.209 101.894 143.405 104.016L143.759 105.984C155.688 103.84 166.104 100.752 174.996 96.7104L174.168 94.8896ZM142.582 105.014C142.717 114.32 144.738 121.344 148.841 125.872L150.323 124.528C146.693 120.523 144.714 114.08 144.582 104.986L142.582 105.014ZM148.841 125.872C152.932 130.385 158.556 132.6 165.582 132.6V130.6C159.008 130.6 153.966 128.548 150.323 124.528L148.841 125.872ZM165.582 132.6C171.505 132.6 176.959 131.013 181.92 127.843L180.844 126.157C176.206 129.121 171.126 130.6 165.582 130.6V132.6ZM181.937 127.832C186.82 124.577 190.967 120.772 194.37 116.416L192.794 115.184C189.531 119.362 185.544 123.023 180.827 126.168L181.937 127.832ZM193.009 116.619L195.009 118.019L196.155 116.381L194.155 114.981L193.009 116.619ZM194.692 116.744C192.069 121.858 188.655 126.719 184.444 131.325L185.92 132.675C190.242 127.948 193.761 122.942 196.472 117.656L194.692 116.744ZM184.433 131.337C180.375 135.919 175.662 139.716 170.293 142.728L171.271 144.472C176.835 141.351 181.723 137.414 185.931 132.663L184.433 131.337ZM170.309 142.719C164.999 145.568 159.096 147 152.582 147V149C159.401 149 165.632 147.498 171.255 144.481L170.309 142.719ZM174.982 50.2C171.623 50.2 168.083 51.6586 164.387 54.3964L165.577 56.0036C169.081 53.4081 172.208 52.2 174.982 52.2V50.2ZM164.372 54.4074C160.802 57.1536 157.4 60.9053 154.157 65.6345L155.807 66.7655C158.964 62.1614 162.229 58.5797 165.592 55.9926L164.372 54.4074ZM154.154 65.6397C151.033 70.2533 148.397 75.598 146.24 81.665L148.124 82.335C150.234 76.402 152.798 71.2134 155.81 66.7603L154.154 65.6397ZM146.236 81.6773C144.204 87.6352 142.989 93.9908 142.584 100.74L144.58 100.86C144.975 94.2758 146.16 88.0982 148.129 82.3227L146.236 81.6773ZM143.845 101.765C158.58 97.7461 169.191 92.4165 175.511 85.6844L174.053 84.3156C168.106 90.6502 157.917 95.8539 143.319 99.8352L143.845 101.765ZM175.504 85.6922C181.93 78.992 185.182 71.3503 185.182 62.8H183.182C183.182 70.783 180.167 77.9413 174.06 84.3078L175.504 85.6922ZM185.182 62.8C185.182 58.6857 184.295 55.4522 182.315 53.3195L180.849 54.6804C182.336 56.2811 183.182 58.9143 183.182 62.8H185.182ZM182.315 53.3195C180.383 51.2386 177.912 50.2 174.982 50.2V52.2C177.385 52.2 179.315 53.0281 180.849 54.6804L182.315 53.3195ZM226.821 144L226.382 144.899L226.391 144.903L226.399 144.907L226.821 144ZM213.221 131.6L212.362 132.112L212.367 132.121L213.221 131.6ZM212.421 86L211.486 85.6453L211.483 85.6524L211.481 85.6596L212.421 86ZM224.621 65.4L225.377 66.055L225.384 66.0467L224.621 65.4ZM242.821 51L243.268 51.8944L243.268 51.8944L242.821 51ZM284.221 50L283.765 50.89L283.778 50.8966L283.791 50.9029L284.221 50ZM297.421 62.2L296.558 62.7052L296.563 62.7129L296.567 62.7206L297.421 62.2ZM298.021 107.6L297.084 107.251L297.081 107.26L298.021 107.6ZM286.021 128.4L285.258 127.753L285.257 127.755L286.021 128.4ZM268.021 142.8L268.475 143.691L268.482 143.687L268.021 142.8ZM259.421 138.4L258.677 137.732L258.675 137.734L259.421 138.4ZM268.421 123.2L269.348 123.575L269.351 123.568L268.421 123.2ZM274.221 102.2L275.206 102.373L275.207 102.37L274.221 102.2ZM272.821 56.2L273.704 55.7308L273.704 55.7308L272.821 56.2ZM252.221 55.4L251.501 54.7059L251.501 54.7059L252.221 55.4ZM242.821 70.4L243.741 70.7916L243.741 70.7916L242.821 70.4ZM236.621 91.2L237.603 91.3895L237.603 91.3895L236.621 91.2ZM238.421 137.6L237.566 138.118L237.573 138.13L238.421 137.6ZM245.821 147C239.019 147 232.832 145.693 227.243 143.093L226.399 144.907C232.277 147.641 238.756 149 245.821 149V147ZM227.26 143.101C221.699 140.386 217.309 136.384 214.075 131.079L212.367 132.121C215.8 137.75 220.477 142.014 226.382 144.899L227.26 143.101ZM214.08 131.089C210.863 125.684 209.221 118.808 209.221 110.4H207.221C207.221 119.059 208.912 126.316 212.362 132.111L214.08 131.089ZM209.221 110.4C209.221 101.978 210.602 93.9605 213.361 86.3404L211.481 85.6596C208.64 93.5061 207.221 101.755 207.221 110.4H209.221ZM213.356 86.3547C216.25 78.7265 220.257 71.9625 225.377 66.0549L223.865 64.7451C218.585 70.8375 214.459 77.8068 211.486 85.6453L213.356 86.3547ZM225.384 66.0467C230.5 60.0125 236.46 55.2984 243.268 51.8944L242.374 50.1056C235.315 53.6349 229.142 58.5209 223.858 64.7533L225.384 66.0467ZM243.268 51.8944C250.056 48.5006 257.435 46.8 265.421 46.8V44.8C257.14 44.8 249.453 46.566 242.374 50.1056L243.268 51.8944ZM265.421 46.8C272.353 46.8 278.46 48.1725 283.765 50.89L284.677 49.11C279.049 46.2275 272.622 44.8 265.421 44.8V46.8ZM283.791 50.9029C289.206 53.4814 293.457 57.4076 296.558 62.7052L298.284 61.6948C294.985 56.0591 290.436 51.8519 284.651 49.0971L283.791 50.9029ZM296.567 62.7206C299.778 67.9865 301.421 74.7909 301.421 83.2H303.421C303.421 74.5424 301.731 67.3468 298.275 61.6794L296.567 62.7206ZM301.421 83.2C301.421 91.4808 299.976 99.4958 297.084 107.251L298.958 107.949C301.933 99.9709 303.421 91.7192 303.421 83.2H301.421ZM297.081 107.26C294.32 114.884 290.38 121.713 285.258 127.753L286.784 129.047C292.063 122.821 296.122 115.783 298.961 107.94L297.081 107.26ZM285.257 127.755C280.274 133.656 274.377 138.373 267.56 141.913L268.482 143.687C275.532 140.027 281.635 135.144 286.785 129.045L285.257 127.755ZM267.567 141.909C260.914 145.301 253.671 147 245.821 147V149C253.971 149 261.528 147.233 268.475 143.691L267.567 141.909ZM248.221 145C252.699 145 256.687 142.963 260.167 139.066L258.675 137.734C255.488 141.304 252.01 143 248.221 143V145ZM260.166 139.068C263.729 135.093 266.784 129.918 269.348 123.575L267.494 122.825C264.992 129.015 262.046 133.974 258.677 137.732L260.166 139.068ZM269.351 123.568C271.912 117.098 273.862 110.032 275.206 102.373L273.236 102.027C271.913 109.568 269.997 116.502 267.491 122.832L269.351 123.568ZM275.207 102.37C276.549 94.5823 277.221 86.8588 277.221 79.2H275.221C275.221 86.7412 274.56 94.3511 273.236 102.03L275.207 102.37ZM277.221 79.2C277.221 68.1295 276.098 60.2369 273.704 55.7308L271.938 56.6691C274.077 60.6964 275.221 68.1371 275.221 79.2H277.221ZM273.704 55.7308C271.332 51.2664 268.117 48.8 264.021 48.8V50.8C267.125 50.8 269.776 52.6002 271.938 56.6691L273.704 55.7308ZM264.021 48.8C259.426 48.8 255.246 50.8222 251.501 54.7059L252.941 56.0941C256.396 52.5111 260.083 50.8 264.021 50.8V48.8ZM251.501 54.7059C247.795 58.5497 244.601 63.6628 241.901 70.0084L243.741 70.7916C246.374 64.6039 249.448 59.7169 252.941 56.0941L251.501 54.7059ZM241.901 70.0084C239.203 76.3482 237.117 83.3504 235.639 91.0105L237.603 91.3895C239.058 83.8496 241.106 76.9851 243.741 70.7916L241.901 70.0084ZM235.639 91.0105C234.161 98.6718 233.421 106.335 233.421 114H235.421C235.421 106.465 236.148 98.9282 237.603 91.3895L235.639 91.0105ZM233.421 114C233.421 125.345 234.744 133.462 237.566 138.118L239.276 137.082C236.765 132.938 235.421 125.322 235.421 114H233.421ZM237.573 138.13C240.36 142.589 243.907 145 248.221 145V143C244.802 143 241.815 141.144 239.269 137.07L237.573 138.13ZM348.449 145L349.018 144.178L349.008 144.17L348.996 144.163L348.449 145ZM346.649 127.2L347.335 127.928L347.335 127.928L346.649 127.2ZM364.049 126.8L363.512 127.644L363.521 127.649L363.529 127.654L364.049 126.8ZM371.449 138.8L370.493 139.091L370.503 139.125L370.516 139.159L371.449 138.8ZM374.049 141.6L373.925 142.592L373.987 142.6H374.049V141.6ZM377.249 139.4L376.406 138.863L377.249 139.4ZM382.049 128.2L381.09 127.918L381.09 127.918L382.049 128.2ZM385.249 113.2L384.263 113.032L384.261 113.043L384.26 113.055L385.249 113.2ZM388.049 95.4L389.039 95.5443L389.039 95.5414L388.049 95.4ZM391.049 74.6L390.063 74.4322L390.061 74.4441L390.06 74.4561L391.049 74.6ZM394.449 53.4L393.463 53.2329L393.462 53.241L393.461 53.2492L394.449 53.4ZM398.449 28.2L397.464 28.0276L397.462 28.04L397.46 28.0524L398.449 28.2ZM392.249 16.8L391.821 17.7037L391.831 17.7084L391.841 17.7128L392.249 16.8ZM388.449 15L387.469 14.8039L387.316 15.5695L388.021 15.9037L388.449 15ZM388.849 13V12H388.029L387.869 12.8039L388.849 13ZM439.049 13L440.03 13.1961L440.269 12H439.049V13ZM438.649 15L439.096 15.8944L439.534 15.6757L439.63 15.1961L438.649 15ZM435.049 16.8L435.455 17.7138L435.476 17.7046L435.496 17.6944L435.049 16.8ZM426.249 28.2L425.268 28.0085L425.265 28.0221L426.249 28.2ZM417.249 78L418.232 78.1871L418.233 78.1778L417.249 78ZM410.449 104.8L409.508 104.461L409.504 104.472L410.449 104.8ZM403.049 121.2L402.194 120.682L402.188 120.691L402.183 120.701L403.049 121.2ZM384.449 141.6L384.993 142.439L384.997 142.437L384.449 141.6ZM361.649 147.6C356.465 147.6 352.278 146.435 349.018 144.178L347.88 145.822C351.553 148.365 356.166 149.6 361.649 149.6V147.6ZM348.996 144.163C345.8 142.073 344.249 139.248 344.249 135.6H342.249C342.249 139.952 344.165 143.393 347.902 145.837L348.996 144.163ZM344.249 135.6C344.249 132.374 345.293 129.85 347.335 127.928L345.964 126.472C343.472 128.817 342.249 131.892 342.249 135.6H344.249ZM347.335 127.928C349.402 125.983 351.951 125 355.049 125V123C351.481 123 348.43 124.151 345.964 126.472L347.335 127.928ZM355.049 125C357.901 125 360.717 125.865 363.512 127.644L364.586 125.956C361.514 124.002 358.331 123 355.049 123V125ZM363.529 127.654C366.274 129.325 368.647 133.026 370.493 139.091L372.406 138.509C370.518 132.307 367.958 128.008 364.569 125.946L363.529 127.654ZM370.516 139.159C371.215 140.977 372.282 142.387 373.925 142.592L374.173 140.608C373.684 140.547 373.017 140.089 372.383 138.441L370.516 139.159ZM374.049 142.6C375.729 142.6 377.065 141.552 378.093 139.937L376.406 138.863C375.567 140.182 374.769 140.6 374.049 140.6V142.6ZM378.093 139.937C380.024 136.902 381.658 133.076 383.009 128.482L381.09 127.918C379.774 132.391 378.208 136.031 376.406 138.863L378.093 139.937ZM383.009 128.482C384.357 123.897 385.433 118.85 386.239 113.345L384.26 113.055C383.465 118.483 382.408 123.436 381.09 127.918L383.009 128.482ZM386.235 113.368C387.17 107.892 388.104 101.951 389.039 95.5443L387.06 95.2557C386.127 101.649 385.195 107.574 384.263 113.032L386.235 113.368ZM389.039 95.5414C389.972 89.009 390.972 82.0765 392.039 74.7439L390.06 74.4561C388.993 81.7901 387.993 88.7243 387.059 95.2586L389.039 95.5414ZM392.035 74.7678C393.103 68.4943 394.237 61.4218 395.438 53.5508L393.461 53.2492C392.261 61.1115 391.129 68.1724 390.063 74.4322L392.035 74.7678ZM395.435 53.5671C396.77 45.6932 398.104 37.2866 399.438 28.3476L397.46 28.0524C396.128 36.98 394.795 45.3735 393.463 53.2329L395.435 53.5671ZM399.434 28.3724C399.93 25.5404 399.644 23.0163 398.478 20.8722C397.313 18.731 395.334 17.0845 392.658 15.8872L391.841 17.7128C394.231 18.7822 395.819 20.169 396.721 21.8278C397.621 23.4837 397.902 25.5262 397.464 28.0276L399.434 28.3724ZM392.677 15.8963L388.877 14.0963L388.021 15.9037L391.821 17.7037L392.677 15.8963ZM389.43 15.1961L389.83 13.1961L387.869 12.8039L387.469 14.8039L389.43 15.1961ZM388.849 14H439.049V12H388.849V14ZM438.069 12.8039L437.669 14.8039L439.63 15.1961L440.03 13.1961L438.069 12.8039ZM438.202 14.1056L434.602 15.9056L435.496 17.6944L439.096 15.8944L438.202 14.1056ZM434.643 15.8862C429.524 18.1612 426.392 22.2444 425.268 28.0085L427.231 28.3915C428.239 23.2222 430.974 19.7055 435.455 17.7138L434.643 15.8862ZM425.265 28.0221L416.265 77.8222L418.233 78.1778L427.233 28.3778L425.265 28.0221ZM416.267 77.8129C414.138 88.9883 411.883 97.8644 409.508 104.461L411.39 105.139C413.815 98.4022 416.094 89.4117 418.232 78.1871L416.267 77.8129ZM409.504 104.472C407.254 110.96 404.814 116.358 402.194 120.682L403.904 121.718C406.618 117.242 409.112 111.706 411.394 105.128L409.504 104.472ZM402.183 120.701C397.182 129.387 391.084 136.062 383.902 140.763L384.997 142.437C392.481 137.538 398.783 130.613 403.916 121.699L402.183 120.701ZM383.905 140.761C376.855 145.33 369.442 147.6 361.649 147.6V149.6C369.856 149.6 377.643 147.203 384.993 142.439L383.905 140.761ZM448.11 144L447.671 144.899L447.68 144.903L447.688 144.907L448.11 144ZM434.51 131.6L433.651 132.112L433.656 132.121L434.51 131.6ZM433.71 86L432.775 85.6453L432.772 85.6524L432.77 85.6596L433.71 86ZM445.91 65.4L446.666 66.055L446.673 66.0467L445.91 65.4ZM464.11 51L464.557 51.8944L464.557 51.8944L464.11 51ZM505.51 50L505.054 50.89L505.067 50.8966L505.08 50.9029L505.51 50ZM518.71 62.2L517.847 62.7052L517.852 62.7129L517.856 62.7206L518.71 62.2ZM519.31 107.6L518.373 107.251L518.37 107.26L519.31 107.6ZM507.31 128.4L506.547 127.753L506.546 127.755L507.31 128.4ZM489.31 142.8L489.764 143.691L489.771 143.687L489.31 142.8ZM480.71 138.4L479.966 137.732L479.964 137.734L480.71 138.4ZM489.71 123.2L490.637 123.575L490.64 123.568L489.71 123.2ZM495.51 102.2L496.495 102.373L496.496 102.37L495.51 102.2ZM494.11 56.2L494.993 55.7308L494.993 55.7308L494.11 56.2ZM473.51 55.4L472.79 54.7059L472.79 54.7059L473.51 55.4ZM464.11 70.4L465.03 70.7916L465.03 70.7916L464.11 70.4ZM457.91 91.2L458.892 91.3895L458.892 91.3895L457.91 91.2ZM459.71 137.6L458.855 138.118L458.862 138.13L459.71 137.6ZM467.11 147C460.308 147 454.121 145.693 448.532 143.093L447.688 144.907C453.566 147.641 460.045 149 467.11 149V147ZM448.549 143.101C442.988 140.386 438.598 136.384 435.364 131.079L433.656 132.121C437.089 137.75 441.766 142.014 447.671 144.899L448.549 143.101ZM435.369 131.089C432.153 125.684 430.51 118.808 430.51 110.4H428.51C428.51 119.059 430.201 126.316 433.651 132.111L435.369 131.089ZM430.51 110.4C430.51 101.978 431.891 93.9605 434.65 86.3404L432.77 85.6596C429.929 93.5061 428.51 101.755 428.51 110.4H430.51ZM434.645 86.3547C437.539 78.7265 441.546 71.9625 446.666 66.0549L445.154 64.7451C439.874 70.8375 435.748 77.8068 432.775 85.6453L434.645 86.3547ZM446.673 66.0467C451.789 60.0125 457.749 55.2984 464.557 51.8944L463.663 50.1056C456.604 53.6349 450.431 58.5209 445.147 64.7533L446.673 66.0467ZM464.557 51.8944C471.345 48.5006 478.724 46.8 486.71 46.8V44.8C478.429 44.8 470.742 46.566 463.663 50.1056L464.557 51.8944ZM486.71 46.8C493.642 46.8 499.749 48.1725 505.054 50.89L505.966 49.11C500.338 46.2275 493.911 44.8 486.71 44.8V46.8ZM505.08 50.9029C510.495 53.4814 514.746 57.4076 517.847 62.7052L519.573 61.6948C516.274 56.0591 511.725 51.8519 505.94 49.0971L505.08 50.9029ZM517.856 62.7206C521.067 67.9865 522.71 74.7909 522.71 83.2H524.71C524.71 74.5424 523.02 67.3468 519.564 61.6794L517.856 62.7206ZM522.71 83.2C522.71 91.4808 521.265 99.4958 518.373 107.251L520.247 107.949C523.222 99.9709 524.71 91.7192 524.71 83.2H522.71ZM518.37 107.26C515.609 114.884 511.669 121.713 506.547 127.753L508.073 129.047C513.352 122.821 517.411 115.783 520.25 107.94L518.37 107.26ZM506.546 127.755C501.563 133.656 495.666 138.373 488.849 141.913L489.771 143.687C496.821 140.027 502.924 135.144 508.074 129.045L506.546 127.755ZM488.856 141.909C482.203 145.301 474.96 147 467.11 147V149C475.26 149 482.817 147.233 489.764 143.691L488.856 141.909ZM469.51 145C473.988 145 477.977 142.963 481.456 139.066L479.964 137.734C476.777 141.304 473.299 143 469.51 143V145ZM481.455 139.068C485.018 135.093 488.073 129.918 490.637 123.575L488.783 122.825C486.281 129.015 483.336 133.974 479.966 137.732L481.455 139.068ZM490.64 123.568C493.201 117.098 495.151 110.032 496.495 102.373L494.525 102.027C493.202 109.568 491.286 116.502 488.78 122.832L490.64 123.568ZM496.496 102.37C497.838 94.5823 498.51 86.8588 498.51 79.2H496.51C496.51 86.7412 495.849 94.3511 494.525 102.03L496.496 102.37ZM498.51 79.2C498.51 68.1295 497.387 60.2369 494.993 55.7308L493.227 56.6691C495.367 60.6964 496.51 68.1371 496.51 79.2H498.51ZM494.993 55.7308C492.622 51.2664 489.406 48.8 485.31 48.8V50.8C488.414 50.8 491.065 52.6002 493.227 56.6691L494.993 55.7308ZM485.31 48.8C480.715 48.8 476.535 50.8222 472.79 54.7059L474.23 56.0941C477.685 52.5111 481.372 50.8 485.31 50.8V48.8ZM472.79 54.7059C469.084 58.5497 465.89 63.6628 463.19 70.0084L465.03 70.7916C467.663 64.6039 470.737 59.7169 474.23 56.0941L472.79 54.7059ZM463.19 70.0084C460.492 76.3482 458.407 83.3504 456.928 91.0105L458.892 91.3895C460.347 83.8496 462.395 76.9851 465.03 70.7916L463.19 70.0084ZM456.928 91.0105C455.45 98.6718 454.71 106.335 454.71 114H456.71C456.71 106.465 457.437 98.9282 458.892 91.3895L456.928 91.0105ZM454.71 114C454.71 125.345 456.033 133.462 458.855 138.118L460.565 137.082C458.054 132.938 456.71 125.322 456.71 114H454.71ZM458.862 138.13C461.649 142.589 465.196 145 469.51 145V143C466.091 143 463.104 141.144 460.558 137.07L458.862 138.13ZM552.798 144L552.359 144.899L552.367 144.903L552.376 144.907L552.798 144ZM539.198 131.6L538.338 132.112L538.344 132.121L539.198 131.6ZM538.398 86L537.463 85.6453L537.46 85.6524L537.457 85.6596L538.398 86ZM550.598 65.4L551.353 66.055L551.36 66.0467L550.598 65.4ZM568.798 51L569.245 51.8944L569.245 51.8944L568.798 51ZM610.198 50L609.742 50.89L609.755 50.8966L609.768 50.9029L610.198 50ZM623.398 62.2L622.535 62.7052L622.539 62.7129L622.544 62.7206L623.398 62.2ZM623.998 107.6L623.061 107.251L623.057 107.26L623.998 107.6ZM611.998 128.4L611.235 127.753L611.234 127.755L611.998 128.4ZM593.998 142.8L594.452 143.691L594.458 143.687L593.998 142.8ZM585.398 138.4L584.653 137.732L584.652 137.734L585.398 138.4ZM594.398 123.2L595.325 123.575L595.327 123.568L594.398 123.2ZM600.198 102.2L601.183 102.373L601.183 102.37L600.198 102.2ZM598.798 56.2L599.681 55.7308L599.681 55.7308L598.798 56.2ZM578.198 55.4L577.478 54.7059L577.478 54.7059L578.198 55.4ZM568.798 70.4L569.718 70.7916L569.718 70.7916L568.798 70.4ZM562.598 91.2L563.58 91.3895L563.58 91.3895L562.598 91.2ZM564.398 137.6L563.542 138.118L563.55 138.13L564.398 137.6ZM571.798 147C564.996 147 558.808 145.693 553.219 143.093L552.376 144.907C558.254 147.641 564.733 149 571.798 149V147ZM553.236 143.101C547.675 140.386 543.286 136.384 540.051 131.079L538.344 132.121C541.776 137.75 546.453 142.014 552.359 144.899L553.236 143.101ZM540.057 131.089C536.84 125.684 535.198 118.808 535.198 110.4H533.198C533.198 119.059 534.889 126.316 538.338 132.111L540.057 131.089ZM535.198 110.4C535.198 101.978 536.579 93.9605 539.338 86.3404L537.457 85.6596C534.616 93.5061 533.198 101.755 533.198 110.4H535.198ZM539.333 86.3547C542.226 78.7265 546.233 71.9625 551.353 66.0549L549.842 64.7451C544.562 70.8375 540.436 77.8068 537.463 85.6453L539.333 86.3547ZM551.36 66.0467C556.476 60.0125 562.437 55.2984 569.245 51.8944L568.35 50.1056C561.292 53.6349 555.119 58.5209 549.835 64.7533L551.36 66.0467ZM569.245 51.8944C576.032 48.5006 583.412 46.8 591.398 46.8V44.8C583.117 44.8 575.429 46.566 568.35 50.1056L569.245 51.8944ZM591.398 46.8C598.33 46.8 604.436 48.1725 609.742 50.89L610.654 49.11C605.026 46.2275 598.599 44.8 591.398 44.8V46.8ZM609.768 50.9029C615.183 53.4814 619.434 57.4076 622.535 62.7052L624.261 61.6948C620.962 56.0591 616.413 51.8519 610.628 49.0971L609.768 50.9029ZM622.544 62.7206C625.755 67.9865 627.398 74.7909 627.398 83.2H629.398C629.398 74.5424 627.707 67.3468 624.251 61.6794L622.544 62.7206ZM627.398 83.2C627.398 91.4808 625.952 99.4958 623.061 107.251L624.935 107.949C627.91 99.9709 629.398 91.7192 629.398 83.2H627.398ZM623.057 107.26C620.297 114.884 616.356 121.713 611.235 127.753L612.76 129.047C618.039 122.821 622.098 115.783 624.938 107.94L623.057 107.26ZM611.234 127.755C606.251 133.656 600.354 138.373 593.537 141.913L594.458 143.687C601.508 140.027 607.611 135.144 612.762 129.045L611.234 127.755ZM593.543 141.909C586.891 145.301 579.648 147 571.798 147V149C579.948 149 587.504 147.233 594.452 143.691L593.543 141.909ZM574.198 145C578.675 145 582.664 142.963 586.144 139.066L584.652 137.734C581.465 141.304 577.987 143 574.198 143V145ZM586.142 139.068C589.706 135.093 592.76 129.918 595.325 123.575L593.471 122.825C590.968 129.015 588.023 133.974 584.653 137.732L586.142 139.068ZM595.327 123.568C597.889 117.098 599.839 110.032 601.183 102.373L599.213 102.027C597.89 109.568 595.973 116.502 593.468 122.832L595.327 123.568ZM601.183 102.37C602.526 94.5823 603.198 86.8588 603.198 79.2H601.198C601.198 86.7412 600.536 94.3511 599.212 102.03L601.183 102.37ZM603.198 79.2C603.198 68.1295 602.075 60.2369 599.681 55.7308L597.915 56.6691C600.054 60.6964 601.198 68.1371 601.198 79.2H603.198ZM599.681 55.7308C597.309 51.2664 594.094 48.8 589.998 48.8V50.8C593.102 50.8 595.753 52.6002 597.915 56.6691L599.681 55.7308ZM589.998 48.8C585.403 48.8 581.223 50.8222 577.478 54.7059L578.918 56.0941C582.373 52.5111 586.059 50.8 589.998 50.8V48.8ZM577.478 54.7059C573.771 58.5497 570.578 63.6628 567.878 70.0084L569.718 70.7916C572.351 64.6039 575.424 59.7169 578.918 56.0941L577.478 54.7059ZM567.878 70.0084C565.18 76.3482 563.094 83.3504 561.616 91.0105L563.58 91.3895C565.035 83.8496 567.082 76.9851 569.718 70.7916L567.878 70.0084ZM561.616 91.0105C560.137 98.6718 559.398 106.335 559.398 114H561.398C561.398 106.465 562.125 98.9282 563.58 91.3895L561.616 91.0105ZM559.398 114C559.398 125.345 560.72 133.462 563.542 138.118L565.253 137.082C562.742 132.938 561.398 125.322 561.398 114H559.398ZM563.55 138.13C566.337 142.589 569.883 145 574.198 145V143C570.779 143 567.792 141.144 565.246 137.07L563.55 138.13ZM673.826 145L672.845 144.804L672.606 146H673.826V145ZM674.226 143L673.921 142.048L673.361 142.227L673.245 142.804L674.226 143ZM679.226 141.4L679.531 142.352L679.578 142.337L679.623 142.318L679.226 141.4ZM686.226 132.8L685.243 132.613L685.241 132.624L685.239 132.636L686.226 132.8ZM697.226 75L698.208 75.187L698.209 75.1821L697.226 75ZM701.626 51L702.61 51.1789L702.61 51.1763L701.626 51ZM706.026 25.8L705.04 25.631L705.04 25.6329L706.026 25.8ZM700.426 16.2L700.054 17.1285L700.061 17.1313L700.069 17.134L700.426 16.2ZM697.426 15L696.445 14.8039L696.282 15.6195L697.054 15.9285L697.426 15ZM697.826 13V12H697.006L696.845 12.8039L697.826 13ZM747.026 13L748.006 13.1961L748.246 12H747.026V13ZM746.626 15L746.92 15.9558L747.489 15.7805L747.606 15.1961L746.626 15ZM741.426 16.6L741.132 15.6442L741.112 15.6502L741.093 15.657L741.426 16.6ZM733.426 25.8L734.409 25.9799L734.411 25.9738L733.426 25.8ZM724.426 75L723.442 74.8201L723.226 76H724.426V75ZM774.026 75V76H774.86L775.01 75.1789L774.026 75ZM776.626 60L775.643 59.8129L775.641 59.8242L775.639 59.8356L776.626 60ZM779.626 42.8L778.642 42.6211L778.64 42.632L778.638 42.6429L779.626 42.8ZM782.426 26.4L781.438 26.244L781.438 26.244L782.426 26.4ZM776.626 16L776.997 15.0715L776.97 15.0606L776.942 15.0513L776.626 16ZM773.626 15L772.645 14.8039L772.472 15.6695L773.31 15.9487L773.626 15ZM774.026 13V12H773.206L773.045 12.8039L774.026 13ZM823.226 13L824.206 13.1961L824.446 12H823.226V13ZM822.826 15L823.142 15.9487L823.693 15.7652L823.806 15.1961L822.826 15ZM818.026 16.6L817.71 15.6513L817.697 15.6556L817.684 15.6602L818.026 16.6ZM810.026 25.8L809.046 25.5983L809.045 25.6061L809.043 25.6138L810.026 25.8ZM799.226 82.8L798.243 82.6138L798.241 82.6242L799.226 82.8ZM795.026 106.4L796.01 106.577L796.01 106.575L795.026 106.4ZM790.426 132.6L789.44 132.431L789.439 132.438L789.438 132.446L790.426 132.6ZM795.226 141.2L795.59 140.269L795.58 140.265L795.226 141.2ZM799.826 143L800.806 143.196L800.971 142.374L800.19 142.069L799.826 143ZM799.426 145V146H800.246L800.406 145.196L799.426 145ZM749.626 145L748.645 144.804L748.406 146H749.626V145ZM750.026 143L749.7 142.055L749.158 142.242L749.045 142.804L750.026 143ZM755.826 141L756.152 141.945L756.152 141.945L755.826 141ZM762.826 133L763.806 133.196L763.808 133.186L762.826 133ZM773.026 79L774.008 79.1856L774.232 78H773.026V79ZM723.426 79V78H722.6L722.444 78.8105L723.426 79ZM718.626 104.4L717.643 104.217L717.641 104.229L718.626 104.4ZM713.826 132.8L712.839 132.638L712.839 132.641L713.826 132.8ZM718.426 141.4L718.032 142.319L718.038 142.322L718.426 141.4ZM722.226 143L723.206 143.196L723.367 142.395L722.614 142.078L722.226 143ZM721.826 145V146H722.646L722.806 145.196L721.826 145ZM674.806 145.196L675.206 143.196L673.245 142.804L672.845 144.804L674.806 145.196ZM674.531 143.952L679.531 142.352L678.921 140.448L673.921 142.048L674.531 143.952ZM679.623 142.318C683.907 140.461 686.485 137.328 687.212 132.964L685.239 132.636C684.633 136.272 682.545 138.872 678.828 140.482L679.623 142.318ZM687.208 132.987L698.208 75.187L696.243 74.813L685.243 132.613L687.208 132.987ZM698.209 75.1821C699.543 67.9808 701.009 59.9797 702.61 51.1789L700.642 50.8211C699.042 59.6203 697.576 67.6192 696.242 74.8179L698.209 75.1821ZM702.61 51.1763C704.211 42.2403 705.678 33.8372 707.012 25.9671L705.04 25.6329C703.707 33.4961 702.241 41.893 700.641 50.8237L702.61 51.1763ZM707.011 25.969C707.44 23.4698 707.171 21.2502 706.09 19.3961C705.01 17.5453 703.196 16.1886 700.783 15.2659L700.069 17.134C702.189 17.9447 703.575 19.0546 704.362 20.4039C705.147 21.7498 705.412 23.4635 705.04 25.631L707.011 25.969ZM700.797 15.2715L697.797 14.0715L697.054 15.9285L700.054 17.1285L700.797 15.2715ZM698.406 15.1961L698.806 13.1961L696.845 12.8039L696.445 14.8039L698.406 15.1961ZM697.826 14H747.026V12H697.826V14ZM746.045 12.8039L745.645 14.8039L747.606 15.1961L748.006 13.1961L746.045 12.8039ZM746.332 14.0442L741.132 15.6442L741.72 17.5558L746.92 15.9558L746.332 14.0442ZM741.093 15.657C736.238 17.3705 733.307 20.7186 732.441 25.6262L734.411 25.9738C735.145 21.8147 737.547 19.0295 741.759 17.543L741.093 15.657ZM732.442 25.6201L723.442 74.8201L725.409 75.1799L734.409 25.9799L732.442 25.6201ZM724.426 76H774.026V74H724.426V76ZM775.01 75.1789C775.811 70.773 776.678 65.768 777.612 60.1644L775.639 59.8356C774.707 65.432 773.841 70.427 773.042 74.8211L775.01 75.1789ZM777.608 60.1871C778.677 54.5767 779.679 48.8334 780.613 42.9571L778.638 42.6429C777.706 48.4999 776.708 54.2233 775.643 59.8129L777.608 60.1871ZM780.61 42.9789C781.677 37.1058 782.612 31.6314 783.414 26.556L781.438 26.244C780.639 31.3019 779.707 36.7609 778.642 42.6211L780.61 42.9789ZM783.414 26.556C783.838 23.8667 783.553 21.4925 782.449 19.5129C781.344 17.5308 779.486 16.0669 776.997 15.0715L776.254 16.9285C778.433 17.7998 779.874 19.0025 780.702 20.4871C781.532 21.9741 781.813 23.8666 781.438 26.244L783.414 26.556ZM776.942 15.0513L773.942 14.0513L773.31 15.9487L776.31 16.9487L776.942 15.0513ZM774.606 15.1961L775.006 13.1961L773.045 12.8039L772.645 14.8039L774.606 15.1961ZM774.026 14H823.226V12H774.026V14ZM822.245 12.8039L821.845 14.8039L823.806 15.1961L824.206 13.1961L822.245 12.8039ZM822.51 14.0513L817.71 15.6513L818.342 17.5487L823.142 15.9487L822.51 14.0513ZM817.684 15.6602C812.962 17.3772 810.051 20.7201 809.046 25.5983L811.005 26.0017C811.868 21.8132 814.289 19.0228 818.368 17.5398L817.684 15.6602ZM809.043 25.6138L798.243 82.6138L800.208 82.9862L811.008 25.9862L809.043 25.6138ZM798.241 82.6242C796.908 90.0913 795.508 97.9583 794.041 106.225L796.01 106.575C797.477 98.3083 798.877 90.442 800.21 82.9758L798.241 82.6242ZM794.042 106.223C792.574 114.359 791.041 123.095 789.44 132.431L791.411 132.769C793.011 123.438 794.544 114.708 796.01 106.577L794.042 106.223ZM789.438 132.446C789.081 134.73 789.314 136.755 790.253 138.437C791.195 140.125 792.776 141.34 794.871 142.135L795.58 140.265C793.809 139.593 792.657 138.641 791.999 137.463C791.338 136.278 791.104 134.737 791.414 132.754L789.438 132.446ZM794.861 142.131L799.461 143.931L800.19 142.069L795.59 140.269L794.861 142.131ZM798.845 142.804L798.445 144.804L800.406 145.196L800.806 143.196L798.845 142.804ZM799.426 144H749.626V146H799.426V144ZM750.606 145.196L751.006 143.196L749.045 142.804L748.645 144.804L750.606 145.196ZM750.352 143.945L756.152 141.945L755.5 140.055L749.7 142.055L750.352 143.945ZM756.152 141.945C760.353 140.497 762.936 137.546 763.806 133.196L761.845 132.804C761.115 136.454 759.032 138.837 755.5 140.055L756.152 141.945ZM763.808 133.186L774.008 79.1856L772.043 78.8144L761.843 132.814L763.808 133.186ZM773.026 78H723.426V80H773.026V78ZM722.444 78.8105C720.977 86.4133 719.376 94.8823 717.643 104.217L719.609 104.583C721.342 95.2511 722.942 86.7867 724.408 79.1895L722.444 78.8105ZM717.641 104.229C716.04 113.432 714.44 122.902 712.839 132.638L714.813 132.962C716.412 123.232 718.012 113.768 719.611 104.571L717.641 104.229ZM712.839 132.641C712.48 134.861 712.698 136.846 713.594 138.522C714.492 140.201 716.01 141.453 718.032 142.319L718.82 140.481C717.108 139.747 715.993 138.766 715.358 137.578C714.721 136.387 714.504 134.872 714.813 132.959L712.839 132.641ZM718.038 142.322L721.838 143.922L722.614 142.078L718.814 140.478L718.038 142.322ZM721.245 142.804L720.845 144.804L722.806 145.196L723.206 143.196L721.245 142.804ZM721.826 144H673.826V146H721.826V144ZM827.205 138.2L826.484 138.892L826.484 138.892L827.205 138.2ZM822.205 86L823.14 86.3547L823.14 86.3547L822.205 86ZM834.405 65.4L833.651 64.7438L833.65 64.7451L834.405 65.4ZM852.805 51L852.358 50.1056L852.358 50.1056L852.805 51ZM894.605 51.6L893.945 52.3512L893.957 52.3617L893.97 52.3719L894.605 51.6ZM894.005 82L893.289 81.3023L893.28 81.3123L894.005 82ZM873.605 95.8L874.019 96.7104L874.031 96.7051L873.605 95.8ZM842.605 105L842.429 104.016L841.593 104.166L841.606 105.014L842.605 105ZM880.405 127L880.944 127.843L880.952 127.837L880.96 127.832L880.405 127ZM892.605 115.8L893.179 114.981L892.402 114.437L891.817 115.184L892.605 115.8ZM894.605 117.2L895.495 117.656L895.893 116.881L895.179 116.381L894.605 117.2ZM884.205 132L883.467 131.325L883.462 131.331L883.457 131.337L884.205 132ZM869.805 143.6L870.278 144.481L870.287 144.477L870.295 144.472L869.805 143.6ZM864.005 55.2L863.41 54.3964L863.403 54.4018L863.396 54.4074L864.005 55.2ZM854.005 66.2L853.181 65.6345L853.177 65.6397L854.005 66.2ZM846.205 82L845.263 81.665L845.259 81.6773L846.205 82ZM842.605 100.8L841.607 100.74L841.524 102.132L842.869 101.765L842.605 100.8ZM873.805 85L873.084 84.3077L873.076 84.3156L873.805 85ZM880.605 54L879.873 54.6804L879.873 54.6804L880.605 54ZM851.605 147C841.846 147 833.984 143.823 827.927 137.508L826.484 138.892C832.96 145.644 841.365 149 851.605 149V147ZM827.927 137.508C821.891 131.215 818.805 122.228 818.805 110.4H816.805C816.805 122.572 819.987 132.118 826.484 138.892L827.927 137.508ZM818.805 110.4C818.805 101.984 820.251 93.9711 823.14 86.3547L821.27 85.6453C818.293 93.4956 816.805 101.749 816.805 110.4H818.805ZM823.14 86.3547C826.034 78.7265 830.041 71.9625 835.161 66.0549L833.65 64.7451C828.37 70.8375 824.244 77.8068 821.27 85.6453L823.14 86.3547ZM835.16 66.0562C840.412 60.0167 846.442 55.2997 853.253 51.8944L852.358 50.1056C845.302 53.6336 839.066 58.5166 833.651 64.7438L835.16 66.0562ZM853.253 51.8944C860.04 48.5006 867.42 46.8 875.405 46.8V44.8C867.125 44.8 859.437 46.566 852.358 50.1056L853.253 51.8944ZM875.405 46.8C883.667 46.8 889.793 48.7023 893.945 52.3512L895.266 50.8488C890.618 46.7643 883.944 44.8 875.405 44.8V46.8ZM893.97 52.3719C898.255 55.9012 900.405 60.6092 900.405 66.6H902.405C902.405 60.0575 900.022 54.7655 895.241 50.8281L893.97 52.3719ZM900.405 66.6C900.405 71.4571 898.107 76.3538 893.289 81.3024L894.722 82.6976C899.77 77.5129 902.405 72.1429 902.405 66.6H900.405ZM893.28 81.3123C888.592 86.2603 881.909 90.7952 873.18 94.8949L874.031 96.7051C882.902 92.5381 889.819 87.873 894.731 82.6877L893.28 81.3123ZM873.192 94.8896C864.483 98.848 854.233 101.894 842.429 104.016L842.782 105.984C854.712 103.84 865.128 100.752 874.019 96.7104L873.192 94.8896ZM841.606 105.014C841.74 114.32 843.761 121.344 847.864 125.872L849.346 124.528C845.716 120.523 843.737 114.08 843.605 104.986L841.606 105.014ZM847.864 125.872C851.955 130.385 857.579 132.6 864.605 132.6V130.6C858.032 130.6 852.989 128.548 849.346 124.528L847.864 125.872ZM864.605 132.6C870.528 132.6 875.982 131.013 880.944 127.843L879.867 126.157C875.229 129.121 870.149 130.6 864.605 130.6V132.6ZM880.96 127.832C885.843 124.577 889.99 120.772 893.393 116.416L891.817 115.184C888.554 119.362 884.568 123.023 879.851 126.168L880.96 127.832ZM892.032 116.619L894.032 118.019L895.179 116.381L893.179 114.981L892.032 116.619ZM893.716 116.744C891.093 121.858 887.679 126.719 883.467 131.325L884.944 132.675C889.265 127.948 892.785 122.942 895.495 117.656L893.716 116.744ZM883.457 131.337C879.398 135.919 874.686 139.716 869.316 142.728L870.295 144.472C875.858 141.351 880.746 137.414 884.954 132.663L883.457 131.337ZM869.333 142.719C864.022 145.568 858.12 147 851.605 147V149C858.424 149 864.655 147.498 870.278 144.481L869.333 142.719ZM874.005 50.2C870.646 50.2 867.106 51.6586 863.41 54.3964L864.601 56.0036C868.105 53.4081 871.232 52.2 874.005 52.2V50.2ZM863.396 54.4074C859.826 57.1536 856.424 60.9053 853.181 65.6345L854.83 66.7655C857.987 62.1614 861.252 58.5797 864.615 55.9926L863.396 54.4074ZM853.177 65.6397C850.056 70.2533 847.42 75.598 845.263 81.665L847.148 82.335C849.257 76.402 851.821 71.2134 854.834 66.7603L853.177 65.6397ZM845.259 81.6773C843.228 87.6352 842.012 93.9908 841.607 100.74L843.604 100.86C843.999 94.2758 845.183 88.0982 847.152 82.3227L845.259 81.6773ZM842.869 101.765C857.604 97.7461 868.215 92.4165 874.535 85.6844L873.076 84.3156C867.13 90.6502 856.941 95.8539 842.342 99.8352L842.869 101.765ZM874.527 85.6922C880.954 78.992 884.205 71.3503 884.205 62.8H882.205C882.205 70.783 879.19 77.9413 873.084 84.3078L874.527 85.6922ZM884.205 62.8C884.205 58.6857 883.319 55.4522 881.338 53.3195L879.873 54.6804C881.359 56.2811 882.205 58.9143 882.205 62.8H884.205ZM881.338 53.3195C879.406 51.2386 876.936 50.2 874.005 50.2V52.2C876.409 52.2 878.338 53.0281 879.873 54.6804L881.338 53.3195ZM917.245 138.2L916.523 138.892L916.523 138.892L917.245 138.2ZM912.245 86L913.18 86.3547L913.18 86.3547L912.245 86ZM924.445 65.4L923.69 64.7438L923.689 64.7451L924.445 65.4ZM942.845 51L942.397 50.1056L942.397 50.1056L942.845 51ZM984.645 51.6L983.984 52.3512L983.996 52.3617L984.009 52.3719L984.645 51.6ZM984.045 82L983.328 81.3023L983.319 81.3123L984.045 82ZM963.645 95.8L964.058 96.7104L964.07 96.7051L963.645 95.8ZM932.645 105L932.468 104.016L931.632 104.166L931.645 105.014L932.645 105ZM970.445 127L970.983 127.843L970.991 127.837L970.999 127.832L970.445 127ZM982.645 115.8L983.218 114.981L982.441 114.437L981.857 115.184L982.645 115.8ZM984.645 117.2L985.534 117.656L985.932 116.881L985.218 116.381L984.645 117.2ZM974.245 132L973.507 131.325L973.501 131.331L973.496 131.337L974.245 132ZM959.845 143.6L960.317 144.481L960.326 144.477L960.334 144.472L959.845 143.6ZM954.045 55.2L953.449 54.3964L953.442 54.4018L953.435 54.4074L954.045 55.2ZM944.045 66.2L943.22 65.6345L943.216 65.6397L944.045 66.2ZM936.245 82L935.302 81.665L935.298 81.6773L936.245 82ZM932.645 100.8L931.646 100.74L931.563 102.132L932.908 101.765L932.645 100.8ZM963.845 85L963.123 84.3077L963.115 84.3156L963.845 85ZM970.645 54L969.912 54.6804L969.912 54.6804L970.645 54ZM941.645 147C931.885 147 924.024 143.823 917.966 137.508L916.523 138.892C922.999 145.644 931.404 149 941.645 149V147ZM917.966 137.508C911.93 131.215 908.845 122.228 908.845 110.4H906.845C906.845 122.572 910.026 132.118 916.523 138.892L917.966 137.508ZM908.845 110.4C908.845 101.984 910.291 93.9711 913.18 86.3547L911.31 85.6453C908.332 93.4956 906.845 101.749 906.845 110.4H908.845ZM913.18 86.3547C916.073 78.7265 920.08 71.9625 925.2 66.0549L923.689 64.7451C918.409 70.8375 914.283 77.8068 911.31 85.6453L913.18 86.3547ZM925.199 66.0562C930.451 60.0167 936.481 55.2997 943.292 51.8944L942.397 50.1056C935.341 53.6336 929.105 58.5166 923.69 64.7438L925.199 66.0562ZM943.292 51.8944C950.079 48.5006 957.459 46.8 965.445 46.8V44.8C957.164 44.8 949.476 46.566 942.397 50.1056L943.292 51.8944ZM965.445 46.8C973.706 46.8 979.832 48.7023 983.984 52.3512L985.305 50.8488C980.657 46.7643 973.983 44.8 965.445 44.8V46.8ZM984.009 52.3719C988.294 55.9012 990.445 60.6092 990.445 66.6H992.445C992.445 60.0575 990.061 54.7655 985.28 50.8281L984.009 52.3719ZM990.445 66.6C990.445 71.4571 988.146 76.3538 983.328 81.3024L984.761 82.6976C989.809 77.5129 992.445 72.1429 992.445 66.6H990.445ZM983.319 81.3123C978.631 86.2603 971.948 90.7952 963.219 94.8949L964.07 96.7051C972.941 92.5381 979.858 87.873 984.77 82.6877L983.319 81.3123ZM963.231 94.8896C954.522 98.848 944.272 101.894 932.468 104.016L932.821 105.984C944.751 103.84 955.167 100.752 964.058 96.7104L963.231 94.8896ZM931.645 105.014C931.78 114.32 933.8 121.344 937.904 125.872L939.386 124.528C935.755 120.523 933.776 114.08 933.644 104.986L931.645 105.014ZM937.904 125.872C941.994 130.385 947.618 132.6 954.645 132.6V130.6C948.071 130.6 943.028 128.548 939.386 124.528L937.904 125.872ZM954.645 132.6C960.567 132.6 966.021 131.013 970.983 127.843L969.906 126.157C965.268 129.121 960.188 130.6 954.645 130.6V132.6ZM970.999 127.832C975.882 124.577 980.029 120.772 983.433 116.416L981.857 115.184C978.593 119.362 974.607 123.023 969.89 126.168L970.999 127.832ZM982.071 116.619L984.071 118.019L985.218 116.381L983.218 114.981L982.071 116.619ZM983.755 116.744C981.132 121.858 977.718 126.719 973.507 131.325L974.983 132.675C979.304 127.948 982.824 122.942 985.534 117.656L983.755 116.744ZM973.496 131.337C969.437 135.919 964.725 139.716 959.355 142.728L960.334 144.472C965.897 141.351 970.785 137.414 974.993 132.663L973.496 131.337ZM959.372 142.719C954.061 145.568 948.159 147 941.645 147V149C948.464 149 954.695 147.498 960.317 144.481L959.372 142.719ZM964.045 50.2C960.685 50.2 957.145 51.6586 953.449 54.3964L954.64 56.0036C958.144 53.4081 961.271 52.2 964.045 52.2V50.2ZM953.435 54.4074C949.865 57.1536 946.463 60.9053 943.22 65.6345L944.869 66.7655C948.026 62.1614 951.291 58.5797 954.654 55.9926L953.435 54.4074ZM943.216 65.6397C940.095 70.2533 937.459 75.598 935.302 81.665L937.187 82.335C939.296 76.402 941.86 71.2134 944.873 66.7603L943.216 65.6397ZM935.298 81.6773C933.267 87.6352 932.051 93.9908 931.646 100.74L933.643 100.86C934.038 94.2758 935.222 88.0982 937.191 82.3227L935.298 81.6773ZM932.908 101.765C947.643 97.7461 958.254 92.4165 964.574 85.6844L963.115 84.3156C957.169 90.6502 946.98 95.8539 932.381 99.8352L932.908 101.765ZM964.566 85.6922C970.993 78.992 974.245 71.3503 974.245 62.8H972.245C972.245 70.783 969.229 77.9413 963.123 84.3078L964.566 85.6922ZM974.245 62.8C974.245 58.6857 973.358 55.4522 971.377 53.3195L969.912 54.6804C971.398 56.2811 972.245 58.9143 972.245 62.8H974.245ZM971.377 53.3195C969.445 51.2386 966.975 50.2 964.045 50.2V52.2C966.448 52.2 968.377 53.0281 969.912 54.6804L971.377 53.3195Z" fill="#fff"/>
</svg>
