<svg preserveAspectRatio="none" width="100%" height="100%" overflow="visible" style="display: block;" viewBox="0 0 40 40" fill="none" xmlns="http://www.w3.org/2000/svg">
<g id="icon-fire">
<path id="Vector" d="M20.5 38.7008C27.4042 38.7008 33 34.1132 33 26.0849C33 22.6442 31.9583 16.9097 27.7917 12.3221C28.3125 15.7628 25.1875 16.9097 25.1875 16.9097C26.75 11.1752 22.5833 3.1469 16.3333 2C17.0771 6.5876 17.375 11.1752 12.1667 15.7628C9.5625 18.0566 8 22.0226 8 26.0849C8 34.1132 13.5958 38.7008 20.5 38.7008Z" fill="var(--fill-0, #E10000)"/>
<path id="Vector_2" d="M20.4998 36.866C17.2779 36.866 14.6665 34.5722 14.6665 30.5581C14.6665 28.8377 15.1526 25.9705 17.0971 23.6767C16.854 25.397 18.5554 26.5439 18.5554 26.5439C17.8262 23.6767 19.5276 19.0891 22.4443 18.5156C22.0962 20.8094 21.9582 23.1032 24.3887 25.397C25.604 26.5439 26.3332 28.5258 26.3332 30.5581C26.3332 34.5722 23.7218 36.866 20.4998 36.866Z" fill="var(--fill-0, #FFD600)"/>
</g>
</svg>
