<svg preserveAspectRatio="none" width="100%" height="100%" overflow="visible" style="display: block;" viewBox="0 0 28 28" fill="none" xmlns="http://www.w3.org/2000/svg">
<g id="icon-github">
<g id="Union">
<path d="M4 14.2526C4 8.58962 8.47656 4 14 4C19.5234 4 24 8.58962 24 14.2526C24 18.7861 21.1398 22.6232 17.1664 23.9825C16.6625 24.0782 16.4816 23.7634 16.4816 23.4883C16.4816 23.3768 16.4828 23.1813 16.4844 22.92L16.4844 22.9183C16.4877 22.389 16.4926 21.5898 16.4926 20.6736C16.4926 19.7188 16.1695 19.0953 15.8133 18.7749C18.0379 18.5218 20.3777 17.6567 20.3777 13.7187C20.3777 12.6009 19.9887 11.6854 19.3477 10.9661C19.452 10.7078 19.7918 9.66293 19.2492 8.25281C19.2492 8.25281 18.4109 7.97767 16.5039 9.30329C15.7039 9.07862 14.8488 8.96608 13.9996 8.96047C13.15 8.96047 12.2953 9.07862 11.4953 9.30329C9.58281 7.97767 8.74453 8.25281 8.74453 8.25281C8.20234 9.66293 8.5418 10.7078 8.64609 10.9661C8.00508 11.685 7.61602 12.6009 7.61602 13.7187C7.61602 17.6455 9.95586 18.5278 12.175 18.7861C11.8902 19.0448 11.627 19.4942 11.5395 20.157C10.9695 20.4153 9.52266 20.8707 8.62969 19.3031C8.62969 19.3031 8.09805 18.3199 7.09531 18.247C7.09531 18.247 6.11992 18.2358 7.02969 18.8706C7.02969 18.8706 7.6875 19.185 8.14219 20.3704C8.14219 20.3704 8.72852 22.1963 11.5121 21.5783C11.5121 22.1378 11.5167 22.6735 11.52 23.0475C11.5217 23.248 11.523 23.402 11.523 23.4883C11.523 23.7578 11.3367 24.0778 10.8383 23.9825C6.86562 22.6232 4 18.7805 4 14.2526Z" fill="var(--fill-0, black)"/>
<path d="M7.61639 18.7527C7.68787 18.7864 7.76444 18.7696 7.78631 18.7191C7.81366 18.6686 7.76991 18.601 7.69881 18.5673C7.62733 18.5337 7.55077 18.5505 7.52889 18.601C7.50116 18.6518 7.5453 18.7191 7.61639 18.7527Z" fill="var(--fill-0, black)"/>
<path d="M8.19182 19.1849C8.1426 19.2298 8.04924 19.2073 7.98908 19.14C7.92346 19.0672 7.91252 18.9714 7.96174 18.9266C8.01096 18.8817 8.09885 18.9042 8.16447 18.9714C8.2301 19.0443 8.24104 19.14 8.19182 19.1849Z" fill="var(--fill-0, black)"/>
<path d="M8.36152 19.6856C8.42715 19.7809 8.52598 19.8202 8.58613 19.7753C8.65176 19.7305 8.65176 19.6179 8.58613 19.5226C8.52051 19.4329 8.42168 19.3937 8.36152 19.4385C8.30137 19.4834 8.30137 19.5959 8.36152 19.6856Z" fill="var(--fill-0, black)"/>
<path d="M9.12872 20.3428C9.07403 20.4045 8.9588 20.3877 8.8713 20.3036C8.7838 20.2195 8.76153 20.1013 8.81661 20.0396C8.87169 19.978 8.992 19.9948 9.07403 20.0789C9.16153 20.1686 9.18341 20.2864 9.12872 20.3428Z" fill="var(--fill-0, black)"/>
<path d="M9.62201 20.7574C9.73685 20.7914 9.85209 20.7518 9.87396 20.6733C9.89584 20.5948 9.81928 20.499 9.70951 20.4654C9.59467 20.4314 9.47943 20.471 9.45756 20.5495C9.43568 20.628 9.50678 20.7237 9.62201 20.7574Z" fill="var(--fill-0, black)"/>
<path d="M10.6901 20.7361C10.6956 20.8202 10.5972 20.8935 10.4765 20.8935C10.3558 20.8991 10.2628 20.8262 10.2573 20.7417C10.2573 20.6576 10.3503 20.5843 10.471 20.5843C10.5917 20.5843 10.6901 20.6516 10.6901 20.7361Z" fill="var(--fill-0, black)"/>
<path d="M11.2658 20.7971C11.3866 20.7746 11.4686 20.6901 11.4522 20.606C11.4358 20.5219 11.3319 20.4711 11.2166 20.4935C11.1014 20.5159 11.0139 20.6004 11.0303 20.6845C11.0412 20.769 11.1506 20.8195 11.2658 20.7971Z" fill="var(--fill-0, black)"/>
</g>
</g>
</svg>
