<svg width="99" height="60" viewBox="0 0 99 60" fill="none" xmlns="http://www.w3.org/2000/svg">
<mask id="path-1-outside-1_26_881" maskUnits="userSpaceOnUse" x="1" y="15" width="96" height="35" fill="black">
<rect fill="white" x="1" y="15" width="96" height="35"/>
<path d="M3.44 47L3.44 17.2H10.6L10.6 47H3.44ZM21.4244 47V17.2H28.7044L36.1044 31.48L39.0244 38.08H39.2244C38.8644 34.92 38.2644 30.64 38.2644 27.08V17.2H45.0644V47H37.7844L30.4244 32.64L27.5044 26.12H27.3044C27.6244 29.44 28.2244 33.52 28.2244 37.12V47H21.4244ZM55.9713 47V17.2L74.9713 17.2V23.16L63.1313 23.16V29.68L73.2913 29.68V35.64H63.1313V47H55.9713ZM85.0181 47.56C80.3781 47.56 77.3381 45.76 75.2181 42.08L80.0581 38.44C81.0981 40.48 82.6181 41.4 84.0581 41.4C86.3781 41.4 87.6181 40.24 87.6181 36.36V17.2H94.7781V36.92C94.7781 42.76 91.6981 47.56 85.0181 47.56Z"/>
</mask>
<path d="M3.44 47L3.44 17.2H10.6L10.6 47H3.44ZM21.4244 47V17.2H28.7044L36.1044 31.48L39.0244 38.08H39.2244C38.8644 34.92 38.2644 30.64 38.2644 27.08V17.2H45.0644V47H37.7844L30.4244 32.64L27.5044 26.12H27.3044C27.6244 29.44 28.2244 33.52 28.2244 37.12V47H21.4244ZM55.9713 47V17.2L74.9713 17.2V23.16L63.1313 23.16V29.68L73.2913 29.68V35.64H63.1313V47H55.9713ZM85.0181 47.56C80.3781 47.56 77.3381 45.76 75.2181 42.08L80.0581 38.44C81.0981 40.48 82.6181 41.4 84.0581 41.4C86.3781 41.4 87.6181 40.24 87.6181 36.36V17.2H94.7781V36.92C94.7781 42.76 91.6981 47.56 85.0181 47.56Z" fill="#039B00"/>
<path d="M3.44 47H1.44V49H3.44V47ZM3.44 17.2V15.2H1.44V17.2H3.44ZM10.6 17.2H12.6V15.2H10.6V17.2ZM10.6 47V49H12.6V47H10.6ZM3.44 47H5.44V17.2H3.44H1.44L1.44 47H3.44ZM3.44 17.2V19.2H10.6V17.2V15.2H3.44V17.2ZM10.6 17.2H8.6L8.6 47H10.6H12.6L12.6 17.2H10.6ZM10.6 47V45H3.44V47V49H10.6V47ZM21.4244 47H19.4244V49H21.4244V47ZM21.4244 17.2V15.2H19.4244V17.2H21.4244ZM28.7044 17.2L30.4801 16.2798L29.9205 15.2H28.7044V17.2ZM36.1044 31.48L37.9334 30.6708L37.9084 30.6145L37.8801 30.5598L36.1044 31.48ZM39.0244 38.08L37.1954 38.8892L37.7222 40.08H39.0244V38.08ZM39.2244 38.08V40.08H41.4652L41.2115 37.8536L39.2244 38.08ZM38.2644 17.2V15.2H36.2644V17.2H38.2644ZM45.0644 17.2H47.0644V15.2H45.0644V17.2ZM45.0644 47V49H47.0644V47H45.0644ZM37.7844 47L36.0045 47.9122L36.5621 49H37.7844V47ZM30.4244 32.64L28.5991 33.4575L28.6206 33.5054L28.6445 33.5522L30.4244 32.64ZM27.5044 26.12L29.3297 25.3025L28.8001 24.12H27.5044V26.12ZM27.3044 26.12V24.12H25.1023L25.3136 26.3119L27.3044 26.12ZM28.2244 47V49H30.2244V47H28.2244ZM21.4244 47H23.4244V17.2H21.4244H19.4244V47H21.4244ZM21.4244 17.2V19.2H28.7044V17.2V15.2H21.4244V17.2ZM28.7044 17.2L26.9286 18.1202L34.3286 32.4002L36.1044 31.48L37.8801 30.5598L30.4801 16.2798L28.7044 17.2ZM36.1044 31.48L34.2754 32.2892L37.1954 38.8892L39.0244 38.08L40.8534 37.2708L37.9334 30.6708L36.1044 31.48ZM39.0244 38.08V40.08H39.2244V38.08V36.08H39.0244V38.08ZM39.2244 38.08L41.2115 37.8536C40.8411 34.602 40.2644 30.4918 40.2644 27.08H38.2644H36.2644C36.2644 30.7882 36.8877 35.238 37.2372 38.3064L39.2244 38.08ZM38.2644 27.08H40.2644V17.2H38.2644H36.2644V27.08H38.2644ZM38.2644 17.2V19.2H45.0644V17.2V15.2H38.2644V17.2ZM45.0644 17.2H43.0644V47H45.0644H47.0644V17.2H45.0644ZM45.0644 47V45H37.7844V47V49H45.0644V47ZM37.7844 47L39.5642 46.0878L32.2042 31.7278L30.4244 32.64L28.6445 33.5522L36.0045 47.9122L37.7844 47ZM30.4244 32.64L32.2497 31.8225L29.3297 25.3025L27.5044 26.12L25.6791 26.9375L28.5991 33.4575L30.4244 32.64ZM27.5044 26.12V24.12H27.3044V26.12V28.12H27.5044V26.12ZM27.3044 26.12L25.3136 26.3119C25.6482 29.7832 26.2244 33.6477 26.2244 37.12H28.2244H30.2244C30.2244 33.3923 29.6006 29.0968 29.2952 25.9281L27.3044 26.12ZM28.2244 37.12H26.2244V47H28.2244H30.2244V37.12H28.2244ZM28.2244 47V45H21.4244V47V49H28.2244V47ZM55.9712 47H53.9712V49H55.9712V47ZM55.9712 17.2V15.2H53.9712V17.2H55.9712ZM74.9713 17.2H76.9713V15.2H74.9713V17.2ZM74.9713 23.16V25.16H76.9713V23.16H74.9713ZM63.1312 23.16V21.16H61.1312V23.16H63.1312ZM63.1312 29.68H61.1312V31.68H63.1312V29.68ZM73.2913 29.68H75.2913V27.68H73.2913V29.68ZM73.2913 35.64V37.64H75.2913V35.64H73.2913ZM63.1312 35.64V33.64H61.1312V35.64H63.1312ZM63.1312 47V49H65.1312V47H63.1312ZM55.9712 47H57.9712V17.2H55.9712H53.9712V47H55.9712ZM55.9712 17.2V19.2L74.9713 19.2V17.2V15.2H55.9712V17.2ZM74.9713 17.2H72.9713V23.16H74.9713H76.9713V17.2H74.9713ZM74.9713 23.16V21.16L63.1312 21.16V23.16V25.16L74.9713 25.16V23.16ZM63.1312 23.16H61.1312V29.68H63.1312L65.1312 29.68V23.16L63.1312 23.16ZM63.1312 29.68V31.68L73.2913 31.68V29.68V27.68L63.1312 27.68V29.68ZM73.2913 29.68H71.2913V35.64H73.2913H75.2913V29.68H73.2913ZM73.2913 35.64V33.64H63.1312V35.64V37.64H73.2913V35.64ZM63.1312 35.64H61.1312V47H63.1312H65.1312V35.64H63.1312ZM63.1312 47V45H55.9712V47V49H63.1312V47ZM75.2181 42.08L74.016 40.4816L72.6019 41.5451L73.4851 43.0784L75.2181 42.08ZM80.0581 38.44L81.8399 37.5316L80.7587 35.4107L78.856 36.8416L80.0581 38.44ZM87.6181 17.2V15.2H85.6181V17.2H87.6181ZM94.7781 17.2H96.7781V15.2L94.7781 15.2V17.2ZM85.0181 47.56V45.56C82.9599 45.56 81.3983 45.1625 80.1596 44.4602C78.9252 43.7603 77.8709 42.6782 76.9511 41.0816L75.2181 42.08L73.4851 43.0784C74.6854 45.1618 76.211 46.8197 78.1867 47.9398C80.158 49.0575 82.4364 49.56 85.0181 49.56V47.56ZM75.2181 42.08L76.4202 43.6784L81.2602 40.0384L80.0581 38.44L78.856 36.8416L74.016 40.4816L75.2181 42.08ZM80.0581 38.44L78.2763 39.3484C79.5638 41.8738 81.6794 43.4 84.0581 43.4V41.4V39.4C83.5568 39.4 82.6325 39.0862 81.8399 37.5316L80.0581 38.44ZM84.0581 41.4V43.4C85.5439 43.4 87.1617 43.0161 88.2896 41.5593C89.3085 40.2433 89.6181 38.4191 89.6181 36.36H87.6181H85.6181C85.6181 38.1809 85.3078 38.8767 85.1267 39.1107C85.0545 39.2039 84.8923 39.4 84.0581 39.4V41.4ZM87.6181 36.36H89.6181V17.2H87.6181H85.6181V36.36H87.6181ZM87.6181 17.2V19.2H94.7781V17.2V15.2H87.6181V17.2ZM94.7781 17.2H92.7781V36.92H94.7781H96.7781V17.2H94.7781ZM94.7781 36.92H92.7781C92.7781 39.5145 92.0921 41.6761 90.8654 43.1512C89.6834 44.5725 87.8346 45.56 85.0181 45.56V47.56V49.56C88.8817 49.56 91.9129 48.1475 93.9409 45.7088C95.9241 43.3239 96.7781 40.1655 96.7781 36.92H94.7781Z" fill="black" mask="url(#path-1-outside-1_26_881)"/>
</svg>
