<svg preserveAspectRatio="none" width="100%" height="100%" overflow="visible" style="display: block;" viewBox="0 0 542 233" fill="none" xmlns="http://www.w3.org/2000/svg">
<g id="effect-joo-bg">
<path id="Subtract" fill-rule="evenodd" clip-rule="evenodd" d="M87.3271 34.8711C83.4708 34.8711 80.3446 37.9729 80.3446 41.7991C80.3446 45.6254 83.4708 48.7272 87.3271 48.7272H131.862V115.683H95.9132C68.3262 115.683 46 137.936 46 165.342C46 192.747 68.3262 215 95.9132 215C123.5 215 145.826 192.747 145.826 165.342V129.539H170.991C170.924 131.073 170.889 132.618 170.889 134.173C170.889 155.944 177.592 175.917 188.759 190.601C199.929 205.288 215.881 215 234.072 215C252.264 215 268.216 205.288 279.385 190.601C283.736 184.88 287.409 178.356 290.272 171.235C293.136 178.356 296.809 184.88 301.159 190.601C312.329 205.288 328.281 215 346.473 215C364.664 215 380.616 205.288 391.786 190.601C402.953 175.917 409.655 155.944 409.655 134.173C409.655 132.618 409.621 131.073 409.554 129.539H437.018C440.874 129.539 444 126.437 444 122.611C444 118.784 440.874 115.683 437.018 115.683H407.999C401.693 81.2679 377.681 53.3459 346.473 53.3459C321.1 53.3459 300.484 71.8018 290.272 97.198C280.061 71.8018 259.445 53.3459 234.072 53.3459C202.864 53.3459 178.852 81.2679 172.546 115.683H145.826V48.7272H190.361C194.217 48.7272 197.343 45.6254 197.343 41.7991C197.343 37.9729 194.217 34.8711 190.361 34.8711H87.3271ZM95.9132 129.539H131.862V165.342C131.862 185.135 115.746 201.144 95.9132 201.144C76.0803 201.144 59.9649 185.135 59.9649 165.342C59.9649 145.548 76.0803 129.539 95.9132 129.539ZM312.307 182.255C303.133 170.192 297.255 153.216 297.255 134.173C297.255 130.512 297.472 126.922 297.89 123.426C301.891 89.9432 323.415 67.202 346.473 67.202C369.53 67.202 391.054 89.9432 395.055 123.426C395.473 126.922 395.691 130.512 395.691 134.173C395.691 153.216 389.812 170.192 380.639 182.255C371.468 194.314 359.32 201.144 346.473 201.144C333.626 201.144 321.478 194.314 312.307 182.255ZM282.655 123.426C283.072 126.922 283.29 130.512 283.29 134.173C283.29 153.216 277.412 170.192 268.238 182.255C259.067 194.314 246.919 201.144 234.072 201.144C221.225 201.144 209.077 194.314 199.906 182.255C190.733 170.192 184.854 153.216 184.854 134.173C184.854 130.512 185.072 126.922 185.49 123.426C189.491 89.9432 211.015 67.202 234.072 67.202C257.129 67.202 278.654 89.9432 282.655 123.426Z" fill="var(--fill-0, black)"/>
<g id="Vector">
<path d="M21 1H1V21H11H21V10V1Z" fill="var(--fill-0, white)"/>
<path d="M1 232H21V224V212H11H1V232Z" fill="var(--fill-0, white)"/>
<path d="M541 232V212H531H521V224V232H541Z" fill="var(--fill-0, white)"/>
<path d="M541 1H521V10V21H531H541V1Z" fill="var(--fill-0, white)"/>
<path d="M521 10V1H541V21H531M521 10V21H531M521 10H21M531 21V212M521 224V212H531M521 224V232H541V212H531M521 224H21M11 21H1V1H21V10M11 21H21V10M11 21V212M11 212H21V224M11 212H1V232H21V224" stroke="var(--stroke-0, #00A3FF)" stroke-width="2"/>
</g>
</g>
</svg>
