<svg width="207" height="135" viewBox="0 0 207 135" fill="none" xmlns="http://www.w3.org/2000/svg">
<path d="M175.083 67.7842C175.083 79.2629 168.309 88.5683 159.954 88.5683C153.447 88.5683 147.9 82.9253 145.764 75.0073L158.948 68.5759L145.097 63.8461C146.436 54.2504 152.579 47 159.954 47C168.309 47 175.083 56.3054 175.083 67.7842Z" fill="black"/>
<path d="M61.9862 67.7842C61.9862 79.2629 55.2128 88.5683 46.8575 88.5683C40.3509 88.5683 34.8037 82.9253 32.6674 75.0073L45.8517 68.5759L32 63.8461C33.3396 54.2504 39.4822 47 46.8575 47C55.2128 47 61.9862 56.3054 61.9862 67.7842Z" fill="black"/>
</svg>
