<svg width="80" height="80" viewBox="0 0 80 80" fill="none" xmlns="http://www.w3.org/2000/svg">
<path d="M13.9931 72.257L24.9297 68.6104C27.5131 67.7504 28.8031 67.3204 30.0164 66.7437C31.4486 66.0606 32.8022 65.2234 34.0531 64.247C35.1131 63.4204 36.0764 62.457 37.9997 60.5337L66.4031 32.1337L69.4931 29.0437C71.9512 26.5856 73.3321 23.2517 73.3321 19.7754C73.3321 16.2991 71.9512 12.9652 69.4931 10.507C67.035 8.04892 63.701 6.66797 60.2247 6.66797C56.7484 6.66797 53.4145 8.04892 50.9564 10.507L19.4597 41.997C17.5364 43.9237 16.5731 44.887 15.7464 45.947C14.7701 47.198 13.9329 48.5515 13.2497 49.9837C12.6731 51.197 12.2431 52.4904 11.3831 55.0704L7.73641 66.007M66.4031 32.1337C66.4031 32.1337 59.8397 31.747 54.0464 25.9537C48.2531 20.1637 47.8697 13.597 47.8697 13.597M13.9931 72.257L11.3197 73.1504C10.6966 73.3593 10.0275 73.3903 9.38769 73.2399C8.74789 73.0895 8.16272 72.7636 7.69798 72.2988C7.23323 71.8341 6.90732 71.2489 6.75688 70.6091C6.60645 69.9693 6.63745 69.3002 6.8464 68.677L7.73974 66.0037L13.9931 72.257Z" stroke="black" stroke-width="6"/>
</svg>
