<svg preserveAspectRatio="none" width="100%" height="100%" overflow="visible" style="display: block;" viewBox="0 0 451 320" fill="none" xmlns="http://www.w3.org/2000/svg">
<g id="intro-bg-doughnut-1">
<path id="diagram-doughnut1" fill-rule="evenodd" clip-rule="evenodd" d="M34.5443 246.264C30.3987 258.996 31.518 267.262 34.6655 272.481C37.813 277.7 44.6145 282.569 57.8504 284.911C71.041 287.245 88.7435 286.654 110.126 282.61C152.768 274.544 206.79 253.374 261.639 220.586C316.487 187.798 360.648 150.276 387.842 116.593C401.479 99.7038 410.324 84.425 414.455 71.7363C418.601 59.0041 417.481 50.7384 414.334 45.519C411.186 40.2996 404.385 35.4306 391.149 33.0889C377.958 30.7551 360.256 31.3462 338.873 35.3904C296.231 43.4557 242.209 64.626 187.361 97.414C132.512 130.202 88.3511 167.725 61.157 201.407C47.5208 218.296 38.6757 233.575 34.5443 246.264ZM37.8881 182.784C67.8096 145.723 114.931 106.041 171.993 71.9301C229.055 37.819 286.383 15.0625 333.302 6.18825C356.7 1.76276 378.331 0.630862 396.372 3.8229C414.369 7.00695 430.7 14.9125 439.93 30.2182C449.16 45.5239 448.492 63.5907 442.855 80.9027C437.204 98.258 426.033 116.735 411.111 135.216C381.19 172.277 334.069 211.959 277.007 246.07C219.945 280.181 162.617 302.938 115.698 311.812C92.2998 316.237 70.6689 317.369 52.627 314.177C34.6303 310.993 18.2999 303.088 9.06989 287.782C-0.160125 272.476 0.507718 254.409 6.14448 237.097C11.7954 219.742 22.9665 201.265 37.8881 182.784Z" fill="var(--fill-0, #76E6FF)" stroke="var(--stroke-0, black)" stroke-width="4"/>
</g>
</svg>
