<svg width="53" height="30" viewBox="0 0 53 30" fill="none" xmlns="http://www.w3.org/2000/svg">
<rect x="1" y="1" width="51" height="28" fill="#FFD600"/>
<rect x="1" y="1" width="51" height="28" stroke="black" stroke-width="2"/>
<mask id="path-2-outside-1_26_1159" maskUnits="userSpaceOnUse" x="6" y="5" width="40" height="19" fill="black">
<rect fill="white" x="6" y="5" width="40" height="19"/>
<path d="M8.58594 7.85938H20.4805V10.5742H16.1738V22H12.8926V10.5742H8.58594V7.85938ZM26.252 7.85938L29.9141 16.7559H30.0801L33.7227 7.85938H37.8535V22H34.6113V13.2012H34.4941L31.0371 21.9121H28.9473L25.5 13.1719H25.3828V22H22.1406V7.85938H26.252ZM43.332 22H40.0117V7.85938H43.332V22Z"/>
</mask>
<path d="M8.58594 7.85938H20.4805V10.5742H16.1738V22H12.8926V10.5742H8.58594V7.85938ZM26.252 7.85938L29.9141 16.7559H30.0801L33.7227 7.85938H37.8535V22H34.6113V13.2012H34.4941L31.0371 21.9121H28.9473L25.5 13.1719H25.3828V22H22.1406V7.85938H26.252ZM43.332 22H40.0117V7.85938H43.332V22Z" fill="white"/>
<path d="M8.58594 7.85938V5.85938C7.48137 5.85938 6.58594 6.75481 6.58594 7.85938H8.58594ZM20.4805 7.85938H22.4805C22.4805 6.75481 21.585 5.85938 20.4805 5.85938V7.85938ZM20.4805 10.5742V12.5742C21.585 12.5742 22.4805 11.6788 22.4805 10.5742H20.4805ZM16.1738 10.5742V8.57422C15.0693 8.57422 14.1738 9.46965 14.1738 10.5742H16.1738ZM16.1738 22V24C17.2784 24 18.1738 23.1046 18.1738 22H16.1738ZM12.8926 22H10.8926C10.8926 23.1046 11.788 24 12.8926 24V22ZM12.8926 10.5742H14.8926C14.8926 9.46965 13.9971 8.57422 12.8926 8.57422V10.5742ZM8.58594 10.5742H6.58594C6.58594 11.6788 7.48137 12.5742 8.58594 12.5742V10.5742ZM8.58594 7.85938V9.85938H20.4805V7.85938V5.85938H8.58594V7.85938ZM20.4805 7.85938H18.4805V10.5742H20.4805H22.4805V7.85938H20.4805ZM20.4805 10.5742V8.57422H16.1738V10.5742V12.5742H20.4805V10.5742ZM16.1738 10.5742H14.1738V22H16.1738H18.1738V10.5742H16.1738ZM16.1738 22V20H12.8926V22V24H16.1738V22ZM12.8926 22H14.8926V10.5742H12.8926H10.8926V22H12.8926ZM12.8926 10.5742V8.57422H8.58594V10.5742V12.5742H12.8926V10.5742ZM8.58594 10.5742H10.5859V7.85938H8.58594H6.58594V10.5742H8.58594ZM26.252 7.85938L28.1014 7.09808C27.7929 6.34857 27.0625 5.85938 26.252 5.85938V7.85938ZM29.9141 16.7559L28.0646 17.5172C28.3731 18.2667 29.1035 18.7559 29.9141 18.7559V16.7559ZM30.0801 16.7559V18.7559C30.892 18.7559 31.6233 18.265 31.9309 17.5137L30.0801 16.7559ZM33.7227 7.85938V5.85938C32.9108 5.85938 32.1794 6.3502 31.8718 7.10156L33.7227 7.85938ZM37.8535 7.85938H39.8535C39.8535 6.75481 38.9581 5.85938 37.8535 5.85938V7.85938ZM37.8535 22V24C38.9581 24 39.8535 23.1046 39.8535 22H37.8535ZM34.6113 22H32.6113C32.6113 23.1046 33.5068 24 34.6113 24V22ZM34.6113 13.2012H36.6113C36.6113 12.0966 35.7159 11.2012 34.6113 11.2012V13.2012ZM34.4941 13.2012V11.2012C33.6744 11.2012 32.9376 11.7015 32.6352 12.4634L34.4941 13.2012ZM31.0371 21.9121V23.9121C31.8569 23.9121 32.5937 23.4118 32.8961 22.6499L31.0371 21.9121ZM28.9473 21.9121L27.0868 22.6459C27.3881 23.41 28.1259 23.9121 28.9473 23.9121V21.9121ZM25.5 13.1719L27.3605 12.4381C27.0592 11.674 26.3213 11.1719 25.5 11.1719V13.1719ZM25.3828 13.1719V11.1719C24.2782 11.1719 23.3828 12.0673 23.3828 13.1719H25.3828ZM25.3828 22V24C26.4874 24 27.3828 23.1046 27.3828 22H25.3828ZM22.1406 22H20.1406C20.1406 23.1046 21.0361 24 22.1406 24V22ZM22.1406 7.85938V5.85938C21.0361 5.85938 20.1406 6.75481 20.1406 7.85938H22.1406ZM26.252 7.85938L24.4025 8.62067L28.0646 17.5172L29.9141 16.7559L31.7635 15.9946L28.1014 7.09808L26.252 7.85938ZM29.9141 16.7559V18.7559H30.0801V16.7559V14.7559H29.9141V16.7559ZM30.0801 16.7559L31.9309 17.5137L35.5735 8.61719L33.7227 7.85938L31.8718 7.10156L28.2292 15.998L30.0801 16.7559ZM33.7227 7.85938V9.85938H37.8535V7.85938V5.85938H33.7227V7.85938ZM37.8535 7.85938H35.8535V22H37.8535H39.8535V7.85938H37.8535ZM37.8535 22V20H34.6113V22V24H37.8535V22ZM34.6113 22H36.6113V13.2012H34.6113H32.6113V22H34.6113ZM34.6113 13.2012V11.2012H34.4941V13.2012V15.2012H34.6113V13.2012ZM34.4941 13.2012L32.6352 12.4634L29.1782 21.1744L31.0371 21.9121L32.8961 22.6499L36.3531 13.9389L34.4941 13.2012ZM31.0371 21.9121V19.9121H28.9473V21.9121V23.9121H31.0371V21.9121ZM28.9473 21.9121L30.8078 21.1783L27.3605 12.4381L25.5 13.1719L23.6395 13.9057L27.0868 22.6459L28.9473 21.9121ZM25.5 13.1719V11.1719H25.3828V13.1719V15.1719H25.5V13.1719ZM25.3828 13.1719H23.3828V22H25.3828H27.3828V13.1719H25.3828ZM25.3828 22V20H22.1406V22V24H25.3828V22ZM22.1406 22H24.1406V7.85938H22.1406H20.1406V22H22.1406ZM22.1406 7.85938V9.85938H26.252V7.85938V5.85938H22.1406V7.85938ZM43.332 22V24C44.4366 24 45.332 23.1046 45.332 22H43.332ZM40.0117 22H38.0117C38.0117 23.1046 38.9071 24 40.0117 24V22ZM40.0117 7.85938V5.85938C38.9071 5.85938 38.0117 6.75481 38.0117 7.85938H40.0117ZM43.332 7.85938H45.332C45.332 6.75481 44.4366 5.85938 43.332 5.85938V7.85938ZM43.332 22V20H40.0117V22V24H43.332V22ZM40.0117 22H42.0117V7.85938H40.0117H38.0117V22H40.0117ZM40.0117 7.85938V9.85938H43.332V7.85938V5.85938H40.0117V7.85938ZM43.332 7.85938H41.332V22H43.332H45.332V7.85938H43.332Z" fill="black" mask="url(#path-2-outside-1_26_1159)"/>
</svg>
