<svg width="292" height="135" viewBox="0 0 292 135" fill="none" xmlns="http://www.w3.org/2000/svg">
<mask id="path-1-inside-1_26_925" fill="white">
<path d="M9.58713 0L291.51 24.6651L281.923 134.246L0 109.581L9.58713 0Z"/>
</mask>
<path d="M9.58713 0L291.51 24.6651L281.923 134.246L0 109.581L9.58713 0Z" fill="white"/>
<path d="M9.58713 0L9.76144 -1.99239L7.76905 -2.1667L7.59474 -0.174311L9.58713 0ZM291.51 24.6651L295.495 25.0137L295.669 23.0213L291.685 22.6727L291.51 24.6651ZM281.923 134.246L281.574 138.231L285.559 138.58L285.908 134.595L281.923 134.246ZM0 109.581L-1.99239 109.407L-2.34101 113.392L-0.348623 113.566L0 109.581ZM9.58713 0L9.41282 1.99239L291.336 26.6575L291.51 24.6651L291.685 22.6727L9.76144 -1.99239L9.58713 0ZM291.51 24.6651L287.525 24.3165L277.938 133.898L281.923 134.246L285.908 134.595L295.495 25.0137L291.51 24.6651ZM281.923 134.246L282.272 130.262L0.348623 105.597L0 109.581L-0.348623 113.566L281.574 138.231L281.923 134.246ZM0 109.581L1.99239 109.756L11.5795 0.174311L9.58713 0L7.59474 -0.174311L-1.99239 109.407L0 109.581Z" fill="black" mask="url(#path-1-inside-1_26_925)"/>
<mask id="path-3-outside-2_26_925" maskUnits="userSpaceOnUse" x="32.2389" y="38.4776" width="226.248" height="66.2569" fill="black">
<rect fill="white" x="32.2389" y="38.4776" width="226.248" height="66.2569"/>
<path d="M72.0281 84.865C62.6166 85.0454 54.0057 84.7939 46.1956 84.1106C42.2905 83.769 39.5016 82.6015 37.829 80.6081C36.1564 78.6147 35.4909 75.6655 35.8325 71.7604L37.5059 52.6335C37.872 48.4495 39.0733 45.503 41.11 43.794C43.1901 42.0486 46.3221 41.359 50.5061 41.725L72.0239 43.6076L71.2918 51.9756L52.1649 50.3022C49.774 50.0931 48.474 51.1839 48.2648 53.5748L46.5914 72.7017C46.5112 73.6182 46.7058 74.3781 47.175 74.9813C47.6875 75.5481 48.402 75.8716 49.3185 75.9518C53.901 76.3527 58.0938 76.6191 61.8967 76.7511L62.655 68.0842L54.8847 67.4044L55.5122 60.2318L74.0414 61.8529L72.0281 84.865ZM97.5845 64.8161C95.0741 64.5964 92.4317 64.9675 89.6573 65.9294L87.8009 87.1483L77.3408 86.2332L80.1124 54.5542L89.377 55.3648L89.6348 59.3022C93.3232 56.6134 97.0402 55.4329 100.786 55.7606L103.476 55.9959L102.665 65.2605L97.5845 64.8161ZM136.727 82.3945C136.466 85.383 135.403 87.6591 133.54 89.2226C131.72 90.7498 129.316 91.3827 126.327 91.1212L112.579 89.9185C109.591 89.657 107.313 88.6145 105.746 86.791C104.222 84.9311 103.591 82.5069 103.853 79.5183L105.055 65.7708C105.317 62.7822 106.358 60.5244 108.178 58.9972C110.041 57.4336 112.467 56.7826 115.456 57.0441L129.203 58.2468C132.192 58.5083 134.448 59.5689 135.972 61.4288C137.539 63.2523 138.191 65.6584 137.93 68.647L136.727 82.3945ZM127.391 68.6284C127.531 67.0345 126.804 66.1678 125.21 66.0284L118.037 65.4008C116.443 65.2614 115.577 65.9886 115.437 67.5825L114.391 79.5369C114.252 81.1308 114.979 81.9975 116.573 82.1369L123.745 82.7644C125.339 82.9039 126.206 82.1767 126.346 80.5827L127.391 68.6284ZM175.302 82.1555L182.355 63.4992L193.711 64.4928L181.077 95.309L170.02 94.3415L165.716 74.6917L158.065 93.2957L147.008 92.3282L139.917 59.7864L151.273 60.78L154.979 80.3776L162.032 61.7213L171.596 62.558L175.302 82.1555ZM215.439 98.3152C211.539 98.3755 207.736 98.2436 204.03 97.9194C201.321 97.6823 199.22 96.6754 197.729 94.8987C196.239 93.122 195.612 90.8789 195.849 88.1692L197.182 72.9274L193.596 72.6137L194.302 64.5445L197.888 64.8583L199.711 57.7902L208.976 58.6008L208.348 65.7734L215.82 66.4271L215.114 74.4962L207.642 73.8426L206.44 87.5901C206.387 88.1878 206.543 88.7033 206.907 89.1366C207.27 89.57 207.751 89.8128 208.349 89.8651L216.119 90.5449L215.439 98.3152ZM232.828 68.5174C236.763 68.0586 240.185 67.9565 243.094 68.2109L245.784 68.4463C248.493 68.6833 250.593 69.6902 252.084 71.4669C253.575 73.2436 254.202 75.4868 253.965 78.1964L251.925 101.507L241.465 100.592L243.4 78.4767C243.453 77.879 243.297 77.3635 242.933 76.9301C242.57 76.4968 242.089 76.254 241.491 76.2017L239.399 76.0187C237.885 75.8862 236.483 75.8439 235.194 75.8917C233.945 75.943 232.938 75.9754 232.174 75.9889L230.109 99.5987L219.649 98.6835L223.309 56.8434L233.769 57.7585L232.828 68.5174Z"/>
</mask>
<path d="M72.0281 84.865C62.6166 85.0454 54.0057 84.7939 46.1956 84.1106C42.2905 83.769 39.5016 82.6015 37.829 80.6081C36.1564 78.6147 35.4909 75.6655 35.8325 71.7604L37.5059 52.6335C37.872 48.4495 39.0733 45.503 41.11 43.794C43.1901 42.0486 46.3221 41.359 50.5061 41.725L72.0239 43.6076L71.2918 51.9756L52.1649 50.3022C49.774 50.0931 48.474 51.1839 48.2648 53.5748L46.5914 72.7017C46.5112 73.6182 46.7058 74.3781 47.175 74.9813C47.6875 75.5481 48.402 75.8716 49.3185 75.9518C53.901 76.3527 58.0938 76.6191 61.8967 76.7511L62.655 68.0842L54.8847 67.4044L55.5122 60.2318L74.0414 61.8529L72.0281 84.865ZM97.5845 64.8161C95.0741 64.5964 92.4317 64.9675 89.6573 65.9294L87.8009 87.1483L77.3408 86.2332L80.1124 54.5542L89.377 55.3648L89.6348 59.3022C93.3232 56.6134 97.0402 55.4329 100.786 55.7606L103.476 55.9959L102.665 65.2605L97.5845 64.8161ZM136.727 82.3945C136.466 85.383 135.403 87.6591 133.54 89.2226C131.72 90.7498 129.316 91.3827 126.327 91.1212L112.579 89.9185C109.591 89.657 107.313 88.6145 105.746 86.791C104.222 84.9311 103.591 82.5069 103.853 79.5183L105.055 65.7708C105.317 62.7822 106.358 60.5244 108.178 58.9972C110.041 57.4336 112.467 56.7826 115.456 57.0441L129.203 58.2468C132.192 58.5083 134.448 59.5689 135.972 61.4288C137.539 63.2523 138.191 65.6584 137.93 68.647L136.727 82.3945ZM127.391 68.6284C127.531 67.0345 126.804 66.1678 125.21 66.0284L118.037 65.4008C116.443 65.2614 115.577 65.9886 115.437 67.5825L114.391 79.5369C114.252 81.1308 114.979 81.9975 116.573 82.1369L123.745 82.7644C125.339 82.9039 126.206 82.1767 126.346 80.5827L127.391 68.6284ZM175.302 82.1555L182.355 63.4992L193.711 64.4928L181.077 95.309L170.02 94.3415L165.716 74.6917L158.065 93.2957L147.008 92.3282L139.917 59.7864L151.273 60.78L154.979 80.3776L162.032 61.7213L171.596 62.558L175.302 82.1555ZM215.439 98.3152C211.539 98.3755 207.736 98.2436 204.03 97.9194C201.321 97.6823 199.22 96.6754 197.729 94.8987C196.239 93.122 195.612 90.8789 195.849 88.1692L197.182 72.9274L193.596 72.6137L194.302 64.5445L197.888 64.8583L199.711 57.7902L208.976 58.6008L208.348 65.7734L215.82 66.4271L215.114 74.4962L207.642 73.8426L206.44 87.5901C206.387 88.1878 206.543 88.7033 206.907 89.1366C207.27 89.57 207.751 89.8128 208.349 89.8651L216.119 90.5449L215.439 98.3152ZM232.828 68.5174C236.763 68.0586 240.185 67.9565 243.094 68.2109L245.784 68.4463C248.493 68.6833 250.593 69.6902 252.084 71.4669C253.575 73.2436 254.202 75.4868 253.965 78.1964L251.925 101.507L241.465 100.592L243.4 78.4767C243.453 77.879 243.297 77.3635 242.933 76.9301C242.57 76.4968 242.089 76.254 241.491 76.2017L239.399 76.0187C237.885 75.8862 236.483 75.8439 235.194 75.8917C233.945 75.943 232.938 75.9754 232.174 75.9889L230.109 99.5987L219.649 98.6835L223.309 56.8434L233.769 57.7585L232.828 68.5174Z" fill="#FFCCFD"/>
<path d="M72.0281 84.865L72.0665 86.8646L73.8638 86.8301L74.0205 85.0393L72.0281 84.865ZM37.829 80.6081L39.3611 79.3225L39.3611 79.3225L37.829 80.6081ZM41.11 43.794L42.3956 45.3261L42.3956 45.3261L41.11 43.794ZM72.0239 43.6076L74.0163 43.7819L74.1906 41.7895L72.1982 41.6152L72.0239 43.6076ZM71.2918 51.9756L71.1175 53.968L73.1099 54.1423L73.2842 52.1499L71.2918 51.9756ZM47.175 74.9813L45.5964 76.2092L45.6418 76.2677L45.6915 76.3227L47.175 74.9813ZM61.8967 76.7511L61.8274 78.7499L63.7238 78.8157L63.8891 76.9254L61.8967 76.7511ZM62.655 68.0842L64.6474 68.2585L64.8217 66.2661L62.8293 66.0918L62.655 68.0842ZM54.8847 67.4044L52.8923 67.2301L52.718 69.2224L54.7104 69.3968L54.8847 67.4044ZM55.5122 60.2318L55.6865 58.2394L53.6941 58.0651L53.5198 60.0575L55.5122 60.2318ZM74.0414 61.8529L76.0338 62.0272L76.2081 60.0348L74.2157 59.8605L74.0414 61.8529ZM72.0281 84.865L71.9898 82.8653C62.6357 83.0446 54.097 82.7943 46.3699 82.1182L46.1956 84.1106L46.0213 86.103C53.9145 86.7936 62.5975 87.0461 72.0665 86.8646L72.0281 84.865ZM46.1956 84.1106L46.3699 82.1182C42.7292 81.7997 40.5536 80.7438 39.3611 79.3225L37.829 80.6081L36.2969 81.8937C38.4496 84.4592 41.8518 85.7382 46.0213 86.103L46.1956 84.1106ZM37.829 80.6081L39.3611 79.3225C38.1685 77.9013 37.5064 75.5754 37.8249 71.9348L35.8325 71.7604L33.8401 71.5861C33.4754 75.7556 34.1442 79.3282 36.2969 81.8937L37.829 80.6081ZM35.8325 71.7604L37.8249 71.9348L39.4983 52.8078L37.5059 52.6335L35.5135 52.4592L33.8401 71.5861L35.8325 71.7604ZM37.5059 52.6335L39.4983 52.8078C39.8441 48.8558 40.9472 46.5414 42.3956 45.3261L41.11 43.794L39.8245 42.2619C37.1995 44.4645 35.8999 48.0431 35.5135 52.4592L37.5059 52.6335ZM41.11 43.794L42.3956 45.3261C43.8944 44.0684 46.3942 43.3729 50.3318 43.7174L50.5061 41.725L50.6804 39.7326C46.25 39.345 42.4857 40.0288 39.8245 42.2619L41.11 43.794ZM50.5061 41.725L50.3318 43.7174L71.8496 45.6L72.0239 43.6076L72.1982 41.6152L50.6804 39.7326L50.5061 41.725ZM72.0239 43.6076L70.0315 43.4333L69.2994 51.8013L71.2918 51.9756L73.2842 52.1499L74.0163 43.7819L72.0239 43.6076ZM71.2918 51.9756L71.4661 49.9832L52.3392 48.3099L52.1649 50.3022L51.9906 52.2946L71.1175 53.968L71.2918 51.9756ZM52.1649 50.3022L52.3392 48.3099C50.8366 48.1784 49.3108 48.4248 48.1111 49.4314C46.9115 50.438 46.4039 51.8979 46.2724 53.4005L48.2648 53.5748L50.2572 53.7491C50.3349 52.8608 50.5819 52.5798 50.6823 52.4956C50.7826 52.4114 51.1022 52.2169 51.9906 52.2946L52.1649 50.3022ZM48.2648 53.5748L46.2724 53.4005L44.599 72.5274L46.5914 72.7017L48.5838 72.876L50.2572 53.7491L48.2648 53.5748ZM46.5914 72.7017L44.599 72.5274C44.4843 73.8384 44.7563 75.1293 45.5964 76.2092L47.175 74.9813L48.7536 73.7533C48.6552 73.6268 48.5381 73.398 48.5838 72.876L46.5914 72.7017ZM47.175 74.9813L45.6915 76.3227C46.6092 77.3375 47.8332 77.8295 49.1442 77.9442L49.3185 75.9518L49.4929 73.9594C48.9709 73.9137 48.7659 73.7587 48.6584 73.6399L47.175 74.9813ZM49.3185 75.9518L49.1442 77.9442C53.7547 78.3475 57.9831 78.6165 61.8274 78.7499L61.8967 76.7511L61.9661 74.7523C58.2045 74.6218 54.0473 74.3579 49.4929 73.9594L49.3185 75.9518ZM61.8967 76.7511L63.8891 76.9254L64.6474 68.2585L62.655 68.0842L60.6626 67.9099L59.9044 76.5768L61.8967 76.7511ZM62.655 68.0842L62.8293 66.0918L55.059 65.412L54.8847 67.4044L54.7104 69.3968L62.4807 70.0766L62.655 68.0842ZM54.8847 67.4044L56.8771 67.5787L57.5046 60.4061L55.5122 60.2318L53.5198 60.0575L52.8923 67.2301L54.8847 67.4044ZM55.5122 60.2318L55.3379 62.2242L73.8671 63.8453L74.0414 61.8529L74.2157 59.8605L55.6865 58.2394L55.5122 60.2318ZM74.0414 61.8529L72.049 61.6786L70.0357 84.6906L72.0281 84.865L74.0205 85.0393L76.0338 62.0272L74.0414 61.8529ZM89.6573 65.9294L89.0021 64.0397L87.7778 64.4642L87.6649 65.7551L89.6573 65.9294ZM87.8009 87.1483L87.6265 89.1407L89.6189 89.315L89.7932 87.3226L87.8009 87.1483ZM77.3408 86.2332L75.3484 86.0589L75.1741 88.0513L77.1665 88.2256L77.3408 86.2332ZM80.1124 54.5542L80.2867 52.5618L78.2943 52.3875L78.12 54.3799L80.1124 54.5542ZM89.377 55.3648L91.3727 55.2341L91.2606 53.5219L89.5513 53.3724L89.377 55.3648ZM89.6348 59.3022L87.6391 59.4329L87.8765 63.059L90.8129 60.9184L89.6348 59.3022ZM103.476 55.9959L105.468 56.1702L105.642 54.1779L103.65 54.0035L103.476 55.9959ZM102.665 65.2605L102.491 67.2529L104.483 67.4272L104.657 65.4349L102.665 65.2605ZM97.5845 64.8161L97.7588 62.8237C94.9251 62.5758 91.9991 63.0007 89.0021 64.0397L89.6573 65.9294L90.3124 67.819C92.8642 66.9343 95.223 66.6171 97.4102 66.8084L97.5845 64.8161ZM89.6573 65.9294L87.6649 65.7551L85.8085 86.974L87.8009 87.1483L89.7932 87.3226L91.6497 66.1037L89.6573 65.9294ZM87.8009 87.1483L87.9752 85.1559L77.5151 84.2408L77.3408 86.2332L77.1665 88.2256L87.6265 89.1407L87.8009 87.1483ZM77.3408 86.2332L79.3332 86.4075L82.1048 54.7285L80.1124 54.5542L78.12 54.3799L75.3484 86.0589L77.3408 86.2332ZM80.1124 54.5542L79.938 56.5466L89.2027 57.3571L89.377 55.3648L89.5513 53.3724L80.2867 52.5618L80.1124 54.5542ZM89.377 55.3648L87.3812 55.4954L87.6391 59.4329L89.6348 59.3022L91.6305 59.1715L91.3727 55.2341L89.377 55.3648ZM89.6348 59.3022L90.8129 60.9184C94.1981 58.4507 97.4451 57.476 100.612 57.753L100.786 55.7606L100.96 53.7682C96.6353 53.3898 92.4482 54.7762 88.4566 57.6861L89.6348 59.3022ZM100.786 55.7606L100.612 57.753L103.301 57.9883L103.476 55.9959L103.65 54.0035L100.96 53.7682L100.786 55.7606ZM103.476 55.9959L101.483 55.8216L100.673 65.0862L102.665 65.2605L104.657 65.4349L105.468 56.1702L103.476 55.9959ZM102.665 65.2605L102.839 63.2682L97.7588 62.8237L97.5845 64.8161L97.4102 66.8084L102.491 67.2529L102.665 65.2605ZM133.54 89.2226L134.825 90.7547L134.825 90.7547L133.54 89.2226ZM105.746 86.791L104.199 88.0585L104.214 88.0767L104.229 88.0945L105.746 86.791ZM108.178 58.9972L109.463 60.5293V60.5293L108.178 58.9972ZM135.972 61.4288L134.424 62.6963L134.439 62.7145L134.455 62.7323L135.972 61.4288ZM136.727 82.3945L134.735 82.2201C134.508 84.8111 133.621 86.544 132.254 87.6906L133.54 89.2226L134.825 90.7547C137.186 88.7742 138.423 85.955 138.72 82.5688L136.727 82.3945ZM133.54 89.2226L132.254 87.6906C130.941 88.7928 129.108 89.3569 126.501 89.1288L126.327 91.1212L126.153 93.1136C129.524 93.4085 132.499 92.7068 134.825 90.7547L133.54 89.2226ZM126.327 91.1212L126.501 89.1288L112.754 87.9261L112.579 89.9185L112.405 91.9109L126.153 93.1136L126.327 91.1212ZM112.579 89.9185L112.754 87.9261C110.15 87.6983 108.41 86.8223 107.263 85.4875L105.746 86.791L104.229 88.0945C106.216 90.4067 109.032 91.6158 112.405 91.9109L112.579 89.9185ZM105.746 86.791L107.293 85.5235C106.178 84.1621 105.617 82.2967 105.845 79.6926L103.853 79.5183L101.86 79.344C101.565 82.7171 102.267 85.7002 104.199 88.0585L105.746 86.791ZM103.853 79.5183L105.845 79.6926L107.048 65.9451L105.055 65.7708L103.063 65.5965L101.86 79.344L103.853 79.5183ZM105.055 65.7708L107.048 65.9451C107.276 63.3388 108.15 61.6315 109.463 60.5293L108.178 58.9972L106.892 57.4651C104.566 59.4172 103.358 62.2256 103.063 65.5965L105.055 65.7708ZM108.178 58.9972L109.463 60.5293C110.83 59.3827 112.69 58.8098 115.281 59.0364L115.456 57.0441L115.63 55.0517C112.244 54.7554 109.252 55.4846 106.892 57.4651L108.178 58.9972ZM115.456 57.0441L115.281 59.0364L129.029 60.2392L129.203 58.2468L129.377 56.2544L115.63 55.0517L115.456 57.0441ZM129.203 58.2468L129.029 60.2392C131.622 60.4661 133.322 61.3511 134.424 62.6963L135.972 61.4288L137.519 60.1614C135.573 57.7868 132.762 56.5505 129.377 56.2544L129.203 58.2468ZM135.972 61.4288L134.455 62.7323C135.588 64.0512 136.164 65.8796 135.938 68.4727L137.93 68.647L139.922 68.8213C140.218 65.4372 139.489 62.4535 137.488 60.1253L135.972 61.4288ZM137.93 68.647L135.938 68.4727L134.735 82.2201L136.727 82.3945L138.72 82.5688L139.922 68.8213L137.93 68.647ZM127.391 68.6284L129.384 68.8027C129.48 67.6986 129.307 66.4804 128.483 65.4974C127.658 64.5144 126.488 64.1326 125.384 64.036L125.21 66.0284L125.035 68.0208C125.525 68.0636 125.516 68.1848 125.418 68.0685C125.321 67.9522 125.442 67.9643 125.399 68.4541L127.391 68.6284ZM125.21 66.0284L125.384 64.036L118.211 63.4085L118.037 65.4008L117.863 67.3932L125.035 68.0208L125.21 66.0284ZM118.037 65.4008L118.211 63.4085C117.107 63.3119 115.889 63.4848 114.906 64.3096C113.923 65.1344 113.541 66.3041 113.445 67.4082L115.437 67.5825L117.429 67.7568C117.472 67.267 117.594 67.2762 117.477 67.3738C117.361 67.4714 117.373 67.3504 117.863 67.3932L118.037 65.4008ZM115.437 67.5825L113.445 67.4082L112.399 79.3626L114.391 79.5369L116.384 79.7112L117.429 67.7568L115.437 67.5825ZM114.391 79.5369L112.399 79.3626C112.302 80.4666 112.475 81.6849 113.3 82.6679C114.125 83.6509 115.295 84.0327 116.399 84.1293L116.573 82.1369L116.747 80.1445C116.257 80.1017 116.267 79.9804 116.364 80.0967C116.462 80.2131 116.341 80.201 116.384 79.7112L114.391 79.5369ZM116.573 82.1369L116.399 84.1293L123.571 84.7568L123.745 82.7644L123.92 80.772L116.747 80.1445L116.573 82.1369ZM123.745 82.7644L123.571 84.7568C124.675 84.8534 125.894 84.6805 126.877 83.8557C127.86 83.0309 128.241 81.8611 128.338 80.7571L126.346 80.5827L124.353 80.4084C124.31 80.8983 124.189 80.8891 124.305 80.7915C124.422 80.6939 124.41 80.8149 123.92 80.772L123.745 82.7644ZM126.346 80.5827L128.338 80.7571L129.384 68.8027L127.391 68.6284L125.399 68.4541L124.353 80.4084L126.346 80.5827ZM175.302 82.1555L173.337 82.5272L174.658 89.5144L177.173 82.8628L175.302 82.1555ZM182.355 63.4992L182.529 61.5069L181.02 61.3748L180.484 62.792L182.355 63.4992ZM193.711 64.4928L195.562 65.2515L196.593 62.7373L193.886 62.5004L193.711 64.4928ZM181.077 95.309L180.903 97.3014L182.369 97.4297L182.928 96.0676L181.077 95.309ZM170.02 94.3415L168.066 94.7694L168.381 96.2058L169.845 96.3339L170.02 94.3415ZM165.716 74.6917L167.67 74.2638L166.3 68.012L163.866 73.931L165.716 74.6917ZM158.065 93.2957L157.891 95.2881L159.356 95.4162L159.915 94.0563L158.065 93.2957ZM147.008 92.3282L145.053 92.754L145.367 94.1923L146.833 94.3206L147.008 92.3282ZM139.917 59.7864L140.091 57.794L137.384 57.5572L137.963 60.2122L139.917 59.7864ZM151.273 60.78L153.239 60.4084L152.957 58.9196L151.448 58.7876L151.273 60.78ZM154.979 80.3776L153.014 80.7492L154.336 87.7365L156.85 81.0848L154.979 80.3776ZM162.032 61.7213L162.207 59.7289L160.697 59.5968L160.161 61.014L162.032 61.7213ZM171.596 62.558L173.561 62.1863L173.279 60.6976L171.77 60.5656L171.596 62.558ZM175.302 82.1555L177.173 82.8628L184.225 64.2065L182.355 63.4992L180.484 62.792L173.431 81.4483L175.302 82.1555ZM182.355 63.4992L182.18 65.4916L193.537 66.4852L193.711 64.4928L193.886 62.5004L182.529 61.5069L182.355 63.4992ZM193.711 64.4928L191.861 63.7342L179.227 94.5503L181.077 95.309L182.928 96.0676L195.562 65.2515L193.711 64.4928ZM181.077 95.309L181.252 93.3166L170.194 92.3492L170.02 94.3415L169.845 96.3339L180.903 97.3014L181.077 95.309ZM170.02 94.3415L171.973 93.9136L167.67 74.2638L165.716 74.6917L163.762 75.1196L168.066 94.7694L170.02 94.3415ZM165.716 74.6917L163.866 73.931L156.216 92.535L158.065 93.2957L159.915 94.0563L167.566 75.4523L165.716 74.6917ZM158.065 93.2957L158.24 91.3033L147.182 90.3359L147.008 92.3282L146.833 94.3206L157.891 95.2881L158.065 93.2957ZM147.008 92.3282L148.962 91.9024L141.871 59.3606L139.917 59.7864L137.963 60.2122L145.053 92.754L147.008 92.3282ZM139.917 59.7864L139.742 61.7788L151.099 62.7724L151.273 60.78L151.448 58.7876L140.091 57.794L139.917 59.7864ZM151.273 60.78L149.308 61.1516L153.014 80.7492L154.979 80.3776L156.945 80.0059L153.239 60.4084L151.273 60.78ZM154.979 80.3776L156.85 81.0848L163.903 62.4285L162.032 61.7213L160.161 61.014L153.109 79.6703L154.979 80.3776ZM162.032 61.7213L161.858 63.7137L171.421 64.5504L171.596 62.558L171.77 60.5656L162.207 59.7289L162.032 61.7213ZM171.596 62.558L169.631 62.9296L173.337 82.5272L175.302 82.1555L177.267 81.7839L173.561 62.1863L171.596 62.558ZM215.439 98.3152L215.47 100.315L217.274 100.287L217.431 98.4895L215.439 98.3152ZM197.729 94.8987L199.262 93.6132V93.6132L197.729 94.8987ZM197.182 72.9274L199.175 73.1018L199.349 71.1094L197.357 70.9351L197.182 72.9274ZM193.596 72.6137L191.604 72.4394L191.429 74.4318L193.422 74.6061L193.596 72.6137ZM194.302 64.5445L194.476 62.5521L192.484 62.3778L192.31 64.3702L194.302 64.5445ZM197.888 64.8583L197.714 66.8507L199.402 66.9983L199.825 65.3577L197.888 64.8583ZM199.711 57.7902L199.886 55.7979L198.198 55.6502L197.775 57.2908L199.711 57.7902ZM208.976 58.6008L210.968 58.7751L211.143 56.7827L209.15 56.6084L208.976 58.6008ZM208.348 65.7734L206.356 65.5991L206.182 67.5915L208.174 67.7658L208.348 65.7734ZM215.82 66.4271L217.812 66.6014L217.986 64.609L215.994 64.4347L215.82 66.4271ZM215.114 74.4962L214.939 76.4886L216.932 76.6629L217.106 74.6706L215.114 74.4962ZM207.642 73.8426L207.817 71.8502L205.824 71.6759L205.65 73.6683L207.642 73.8426ZM206.907 89.1366L205.374 90.4222L205.374 90.4222L206.907 89.1366ZM216.119 90.5449L218.111 90.7192L218.286 88.7268L216.293 88.5525L216.119 90.5449ZM215.439 98.3152L215.408 96.3155C211.573 96.3748 207.839 96.245 204.204 95.927L204.03 97.9194L203.856 99.9118C207.633 100.242 211.505 100.376 215.47 100.315L215.439 98.3152ZM204.03 97.9194L204.204 95.927C201.925 95.7275 200.353 94.9136 199.262 93.6132L197.729 94.8987L196.197 96.1843C198.088 98.4372 200.716 99.6371 203.856 99.9118L204.03 97.9194ZM197.729 94.8987L199.262 93.6132C198.17 92.3127 197.642 90.6232 197.841 88.3435L195.849 88.1692L193.856 87.9949C193.582 91.1346 194.307 93.9314 196.197 96.1843L197.729 94.8987ZM195.849 88.1692L197.841 88.3435L199.175 73.1018L197.182 72.9274L195.19 72.7531L193.856 87.9949L195.849 88.1692ZM197.182 72.9274L197.357 70.9351L193.77 70.6213L193.596 72.6137L193.422 74.6061L197.008 74.9198L197.182 72.9274ZM193.596 72.6137L195.588 72.788L196.294 64.7188L194.302 64.5445L192.31 64.3702L191.604 72.4394L193.596 72.6137ZM194.302 64.5445L194.128 66.5369L197.714 66.8507L197.888 64.8583L198.063 62.8659L194.476 62.5521L194.302 64.5445ZM197.888 64.8583L199.825 65.3577L201.648 58.2897L199.711 57.7902L197.775 57.2908L195.952 64.3588L197.888 64.8583ZM199.711 57.7902L199.537 59.7826L208.802 60.5932L208.976 58.6008L209.15 56.6084L199.886 55.7979L199.711 57.7902ZM208.976 58.6008L206.983 58.4265L206.356 65.5991L208.348 65.7734L210.341 65.9477L210.968 58.7751L208.976 58.6008ZM208.348 65.7734L208.174 67.7658L215.645 68.4195L215.82 66.4271L215.994 64.4347L208.523 63.781L208.348 65.7734ZM215.82 66.4271L213.827 66.2528L213.121 74.3219L215.114 74.4962L217.106 74.6706L217.812 66.6014L215.82 66.4271ZM215.114 74.4962L215.288 72.5039L207.817 71.8502L207.642 73.8426L207.468 75.835L214.939 76.4886L215.114 74.4962ZM207.642 73.8426L205.65 73.6683L204.447 87.4157L206.44 87.5901L208.432 87.7644L209.635 74.0169L207.642 73.8426ZM206.44 87.5901L204.447 87.4157C204.352 88.5063 204.648 89.556 205.374 90.4222L206.907 89.1366L208.439 87.8511C208.429 87.839 208.426 87.834 208.427 87.8361C208.429 87.8384 208.43 87.8427 208.432 87.8469C208.433 87.8509 208.432 87.8489 208.431 87.838C208.43 87.8267 208.429 87.8029 208.432 87.7644L206.44 87.5901ZM206.907 89.1366L205.374 90.4222C206.101 91.2885 207.084 91.7621 208.174 91.8575L208.349 89.8651L208.523 87.8727C208.484 87.8693 208.461 87.8641 208.45 87.8611C208.44 87.8582 208.438 87.8567 208.442 87.8586C208.446 87.8606 208.449 87.8632 208.451 87.8649C208.453 87.8663 208.449 87.8631 208.439 87.8511L206.907 89.1366ZM208.349 89.8651L208.174 91.8575L215.945 92.5373L216.119 90.5449L216.293 88.5525L208.523 87.8727L208.349 89.8651ZM216.119 90.5449L214.126 90.3706L213.447 98.1409L215.439 98.3152L217.431 98.4895L218.111 90.7192L216.119 90.5449ZM232.828 68.5174L230.836 68.3431L230.622 70.7882L233.06 70.5039L232.828 68.5174ZM252.084 71.4669L250.552 72.7525V72.7525L252.084 71.4669ZM251.925 101.507L251.751 103.5L253.744 103.674L253.918 101.682L251.925 101.507ZM241.465 100.592L239.473 100.418L239.299 102.41L241.291 102.585L241.465 100.592ZM235.194 75.8917L235.12 73.8931L235.112 73.8934L235.194 75.8917ZM232.174 75.9889L232.139 73.9892L230.339 74.0209L230.182 75.8145L232.174 75.9889ZM230.109 99.5987L229.935 101.591L231.927 101.765L232.101 99.773L230.109 99.5987ZM219.649 98.6835L217.656 98.5092L217.482 100.502L219.474 100.676L219.649 98.6835ZM223.309 56.8434L223.484 54.851L221.491 54.6767L221.317 56.669L223.309 56.8434ZM233.769 57.7585L235.762 57.9328L235.936 55.9404L233.944 55.7661L233.769 57.7585ZM232.828 68.5174L233.06 70.5039C236.904 70.0557 240.184 69.964 242.92 70.2033L243.094 68.2109L243.268 66.2186C240.186 65.9489 236.622 66.0615 232.596 66.5308L232.828 68.5174ZM243.094 68.2109L242.92 70.2033L245.609 70.4387L245.784 68.4463L245.958 66.4539L243.268 66.2186L243.094 68.2109ZM245.784 68.4463L245.609 70.4387C247.889 70.6381 249.461 71.452 250.552 72.7525L252.084 71.4669L253.616 70.1813C251.726 67.9284 249.098 66.7286 245.958 66.4539L245.784 68.4463ZM252.084 71.4669L250.552 72.7525C251.643 74.0529 252.172 75.7425 251.973 78.0221L253.965 78.1964L255.957 78.3707C256.232 75.2311 255.507 72.4343 253.616 70.1813L252.084 71.4669ZM253.965 78.1964L251.973 78.0221L249.933 101.333L251.925 101.507L253.918 101.682L255.957 78.3707L253.965 78.1964ZM251.925 101.507L252.1 99.515L241.64 98.5999L241.465 100.592L241.291 102.585L251.751 103.5L251.925 101.507ZM241.465 100.592L243.458 100.767L245.393 78.651L243.4 78.4767L241.408 78.3024L239.473 100.418L241.465 100.592ZM243.4 78.4767L245.393 78.651C245.488 77.5605 245.192 76.5108 244.465 75.6446L242.933 76.9301L241.401 78.2157C241.411 78.2278 241.414 78.2328 241.413 78.2307C241.411 78.2284 241.409 78.2241 241.408 78.2199C241.407 78.2158 241.408 78.2178 241.409 78.2288C241.41 78.2401 241.411 78.2639 241.408 78.3024L243.4 78.4767ZM242.933 76.9301L244.465 75.6446C243.739 74.7783 242.756 74.3047 241.666 74.2093L241.491 76.2017L241.317 78.1941C241.356 78.1974 241.379 78.2027 241.39 78.2057C241.4 78.2086 241.402 78.2101 241.398 78.2082C241.394 78.2062 241.391 78.2036 241.388 78.2019C241.387 78.2004 241.391 78.2036 241.401 78.2157L242.933 76.9301ZM241.491 76.2017L241.666 74.2093L239.574 74.0263L239.399 76.0187L239.225 78.011L241.317 78.1941L241.491 76.2017ZM239.399 76.0187L239.574 74.0263C237.991 73.8878 236.505 73.8417 235.12 73.8931L235.194 75.8917L235.269 77.8903C236.462 77.846 237.779 77.8846 239.225 78.011L239.399 76.0187ZM235.194 75.8917L235.112 73.8934C233.87 73.9444 232.881 73.9761 232.139 73.9892L232.174 75.9889L232.21 77.9885C232.996 77.9747 234.02 77.9416 235.276 77.89L235.194 75.8917ZM232.174 75.9889L230.182 75.8145L228.116 99.4244L230.109 99.5987L232.101 99.773L234.167 76.1632L232.174 75.9889ZM230.109 99.5987L230.283 97.6063L219.823 96.6911L219.649 98.6835L219.474 100.676L229.935 101.591L230.109 99.5987ZM219.649 98.6835L221.641 98.8578L225.302 57.0177L223.309 56.8434L221.317 56.669L217.656 98.5092L219.649 98.6835ZM223.309 56.8434L223.135 58.8357L233.595 59.7509L233.769 57.7585L233.944 55.7661L223.484 54.851L223.309 56.8434ZM233.769 57.7585L231.777 57.5842L230.836 68.3431L232.828 68.5174L234.82 68.6917L235.762 57.9328L233.769 57.7585Z" fill="black" mask="url(#path-3-outside-2_26_925)"/>
</svg>
