<svg preserveAspectRatio="none" width="100%" height="100%" overflow="visible" style="display: block;" viewBox="0 0 108 48" fill="none" xmlns="http://www.w3.org/2000/svg">
<g id="mini-logo">
<g id="icon">
<path fill-rule="evenodd" clip-rule="evenodd" d="M55.3525 20.6924C56.4455 20.6924 57.3467 21.3054 57.9365 22.1191C58.5271 22.9341 58.8613 24.0108 58.8613 25.1543C58.8612 26.2976 58.5271 27.3737 57.9365 28.1885C57.3467 29.0022 56.4456 29.6152 55.3525 29.6152C53.6364 29.615 52.4497 28.1628 52.0342 26.6162L51.8203 25.8213L52.5596 25.459L52.5791 25.4492L52.5645 25.4443L51.7852 25.1768L51.8984 24.3604C52.1526 22.5315 53.4042 20.6926 55.3525 20.6924Z" fill="var(--fill-0, black)"/>
<path fill-rule="evenodd" clip-rule="evenodd" d="M74.1074 20.6924C75.2005 20.6924 76.1016 21.3054 76.6914 22.1191C77.282 22.9341 77.6162 24.0108 77.6162 25.1543C77.6161 26.2976 77.282 27.3737 76.6914 28.1885C76.1016 29.0022 75.2005 29.6152 74.1074 29.6152C72.3912 29.6151 71.2046 28.1629 70.7891 26.6162L70.5752 25.8213L71.3145 25.459L71.334 25.4492L71.3193 25.4443L70.54 25.1768L70.6533 24.3604C70.9075 22.5315 72.159 20.6925 74.1074 20.6924Z" fill="var(--fill-0, black)"/>
<path fill-rule="evenodd" clip-rule="evenodd" d="M44.9395 8C46.1278 8.00012 47.0967 8.96153 47.0967 10.1543C47.0964 11.3469 46.1277 12.3075 44.9395 12.3076H38.5537V21.459H41.1738C42.4896 15.8224 46.6067 11.0773 52.1875 11.0771C56.227 11.0771 59.5137 13.5829 61.5068 17.0811C63.4999 13.5826 66.7874 11.0771 70.8271 11.0771C76.4081 11.0772 80.525 15.8223 81.8408 21.459H85.8418C87.0301 21.459 87.9997 22.4197 88 23.6123C88 24.8051 87.0303 25.7666 85.8418 25.7666H82.3008C82.2552 29.5027 81.0941 32.9577 79.1387 35.54C77.1431 38.1754 74.2257 40 70.8271 40C67.4286 40 64.5112 38.1754 62.5156 35.54C62.1505 35.0579 61.8152 34.5444 61.5078 34.0059C61.2003 34.5445 60.8642 35.0578 60.499 35.54C58.5035 38.1753 55.586 40 52.1875 40C48.7891 39.9999 45.8715 38.1753 43.876 35.54C41.9206 32.9577 40.7595 29.5026 40.7139 25.7666H38.5537V30.7295C38.5537 35.8461 34.404 39.9998 29.2773 40C24.1505 40 20 35.8462 20 30.7295C20 25.6127 24.1505 21.459 29.2773 21.459H34.2383V12.3076H27.8535C26.6652 12.3076 25.6956 11.3469 25.6953 10.1543C25.6953 8.96146 26.665 8 27.8535 8H44.9395ZM24.3154 30.7295C24.3154 27.9857 26.5402 25.7666 29.2773 25.7666H34.2383V30.7295C34.2383 33.4732 32.0143 35.6922 29.2773 35.6924C26.5403 35.6924 24.3154 33.4733 24.3154 30.7295ZM45.124 23.8672C45.7548 18.5661 49.0707 15.385 52.1875 15.3848C55.3044 15.3848 58.6202 18.5659 59.251 23.8672C59.3155 24.4099 59.3496 24.968 59.3496 25.5381C59.3496 28.5117 58.4345 31.1226 57.0566 32.9424C55.6803 34.7601 53.9375 35.6924 52.1875 35.6924C50.4376 35.6923 48.6956 34.7599 47.3193 32.9424C45.9414 31.1226 45.0264 28.5117 45.0264 25.5381C45.0264 24.968 45.0595 24.4099 45.124 23.8672ZM63.7637 23.8672C64.3944 18.566 67.7103 15.3848 70.8271 15.3848C73.944 15.3848 77.2599 18.566 77.8906 23.8672C77.9552 24.4099 77.9892 24.968 77.9893 25.5381C77.9893 28.5118 77.0733 31.1226 75.6953 32.9424C74.3189 34.7601 72.5772 35.6924 70.8271 35.6924C69.0771 35.6924 67.3354 34.7601 65.959 32.9424C64.581 31.1226 63.665 28.5118 63.665 25.5381C63.6651 24.968 63.6991 24.4099 63.7637 23.8672Z" fill="var(--fill-0, black)"/>
<path d="M94.5 3L95.9849 12.0151L105 13.5L95.9849 14.9849L94.5 24L93.0151 14.9849L84 13.5L93.0151 12.0151L94.5 3Z" fill="var(--fill-0, black)"/>
</g>
</g>
</svg>
